<?xml version="1.0" standalone="no"?>
<!DOCTYPE svg PUBLIC "-//W3C//DTD SVG 1.1//EN" "http://www.w3.org/Graphics/SVG/1.1/DTD/svg11.dtd" >
<svg xmlns="http://www.w3.org/2000/svg">
<metadata></metadata>
<defs>
<font id="pangramblack" horiz-adv-x="1323" >
<font-face units-per-em="2048" ascent="1638" descent="-410" />
<missing-glyph horiz-adv-x="450" />
<glyph unicode=" "  horiz-adv-x="450" />
<glyph unicode="&#x09;" horiz-adv-x="450" />
<glyph unicode="&#xa0;" horiz-adv-x="450" />
<glyph unicode="!" horiz-adv-x="593" d="M143 1454h349l-21 -1010h-307zM154 143q0 69 47 116.5t116 47.5t116.5 -47.5t47.5 -116.5t-47.5 -116t-116.5 -47t-116 47t-47 116z" />
<glyph unicode="&#x22;" horiz-adv-x="962" d="M225 1036v500h267v-500h-267zM614 1036v500h267v-500h-267z" />
<glyph unicode="#" horiz-adv-x="1712" d="M164 254v348h266l23 209h-228v348h267l30 295h338l-31 -295h220l30 295h338l-31 -295h203v-348h-241l-23 -209h203v-348h-240l-26 -254h-338l26 254h-219l-26 -254h-338l26 254h-229zM768 602h219l23 209h-219z" />
<glyph unicode="$" horiz-adv-x="1413" d="M205 485h348q0 -68 30 -111t83 -59v254l-35 21q-126 77 -205 140t-120.5 122.5t-55.5 111t-14 119.5q0 168 122 277t308 115v143h82v-148q127 -14 223 -83t146 -176.5t50 -237.5h-348q0 124 -71 160v-228l12 -6q121 -70 198.5 -125t137 -117t86 -128t26.5 -146 q0 -124 -64.5 -216t-167 -137.5t-228.5 -49.5v-144h-82v146q-113 10 -203.5 59t-145 120.5t-83.5 154.5t-29 169zM584 1067q0 -32 18 -56t64 -55v189q-36 -5 -59 -25.5t-23 -52.5zM748 307q55 4 83.5 30t28.5 60t-25.5 60t-86.5 63v-213z" />
<glyph unicode="%" horiz-adv-x="2117" d="M205 1137q0 141 98.5 239.5t239.5 98.5t239.5 -98.5t98.5 -239.5t-98.5 -239.5t-239.5 -98.5t-239.5 98.5t-98.5 239.5zM360 0l1098 1454h318l-1098 -1454h-318zM451 1137q0 -40 26 -66.5t66 -26.5t66 26.5t26 66.5t-26 66t-66 26t-66 -26t-26 -66zM1278 317 q0 141 98.5 239.5t239.5 98.5t239.5 -98.5t98.5 -239.5t-98.5 -239t-239.5 -98t-239.5 98t-98.5 239zM1524 317q0 -40 26 -66t66 -26t66 26t26 66t-26 66.5t-66 26.5t-66 -26.5t-26 -66.5z" />
<glyph unicode="&#x26;" horiz-adv-x="1843" d="M205 403q0 134 66 232t159 149q-88 95 -115.5 160t-27.5 146q0 53 17 105.5t56.5 103.5t96.5 89.5t143.5 62.5t190.5 24q117 0 212.5 -40t155 -106.5t91.5 -148t32 -168.5h-348q0 66 -41.5 100.5t-118.5 34.5q-64 0 -101.5 -28t-37.5 -66q0 -13 3.5 -25t7 -22.5 t14.5 -24.5t18 -23t25.5 -26.5t28.5 -27.5t35.5 -33.5t39.5 -36.5l334 -318q39 76 39 166h-103v164h451q0 -338 -144 -563l295 -283h-411l-88 82q-168 -102 -416 -102q-265 0 -412 119.5t-147 303.5zM553 485q0 -71 70 -124.5t186 -53.5q54 0 109 19l-304 280 q-29 -17 -45 -49.5t-16 -71.5z" />
<glyph unicode="'" horiz-adv-x="573" d="M225 1036v500h267v-500h-267z" />
<glyph unicode="(" horiz-adv-x="921" d="M164 362v566q0 274 146.5 400t447.5 126v-328q-35 0 -66 -4.5t-65 -17.5t-58.5 -34t-40.5 -57.5t-16 -84.5v-566q0 -48 16 -84.5t40.5 -57.5t58.5 -34t65 -17.5t66 -4.5v-328q-301 0 -447.5 126t-146.5 400z" />
<glyph unicode=")" horiz-adv-x="901" d="M143 -164v328q35 0 66 4.5t65 17.5t58.5 34t40.5 57.5t16 84.5v566q0 48 -16 84.5t-40.5 57.5t-58.5 34t-65 17.5t-66 4.5v328q301 0 447.5 -126t146.5 -400v-566q0 -274 -146.5 -400t-447.5 -126z" />
<glyph unicode="*" horiz-adv-x="1208" d="M205 973v266l270 -41l-170 213l230 133l100 -254l100 254l230 -133l-170 -213l270 41v-266l-272 43l172 -215l-230 -133l-100 256l-100 -256l-230 133l170 213z" />
<glyph unicode="+" horiz-adv-x="1331" d="M205 412v327h297v297h327v-297h297v-327h-297v-297h-327v297h-297z" />
<glyph unicode="," horiz-adv-x="645" d="M61 -348l134 500h348l-215 -500h-267z" />
<glyph unicode="-" horiz-adv-x="1290" d="M205 379v328h921v-328h-921z" />
<glyph unicode="." horiz-adv-x="491" d="M61 143q0 69 47.5 116.5t116.5 47.5t116.5 -47.5t47.5 -116.5t-47.5 -116t-116.5 -47t-116.5 47t-47.5 116z" />
<glyph unicode="/" horiz-adv-x="1005" d="M102 0l545 1454h297l-545 -1454h-297z" />
<glyph unicode="0" horiz-adv-x="1466" d="M164 528v398q0 109 33.5 200.5t90 155t132.5 108t160 65t174 20.5q113 0 216 -34t187.5 -99t135 -173t50.5 -243v-398q0 -109 -33 -200.5t-89.5 -155t-132.5 -107.5t-160 -64.5t-174 -20.5t-174 20.5t-160 64.5t-132.5 107.5t-90 155t-33.5 200.5zM512 528 q0 -105 70 -163t172 -58q101 0 171 58t70 163v398q0 105 -70 163t-171 58q-102 0 -172 -58t-70 -163v-398z" />
<glyph unicode="1" horiz-adv-x="1165" d="M141 0v328h287v714l-287 -55v344l635 123v-1126h287v-328h-922z" />
<glyph unicode="2" horiz-adv-x="1384" d="M184 0v328q0 77 24.5 141.5t65.5 110t94 83.5t111.5 66t117.5 53t112 49.5t94 50.5t65.5 60t24.5 74q0 56 -42 93.5t-118 37.5q-88 0 -144.5 -38.5t-56.5 -104.5h-348q0 129 74.5 237.5t202 171t276.5 62.5q142 0 256 -56.5t181 -164.5t67 -250q0 -99 -38.5 -178 t-100.5 -129t-136.5 -89.5t-149 -69t-136.5 -58t-100.5 -67t-38.5 -85.5h700v-328h-1057z" />
<glyph unicode="3" horiz-adv-x="1425" d="M184 457h348q0 -44 18.5 -75t50 -46.5t63.5 -22t69 -6.5q96 0 148.5 38.5t52.5 111.5q0 131 -219 131h-101v327h101q49 0 82.5 12t48.5 31.5t20.5 35.5t5.5 32q0 57 -40.5 89t-118.5 32q-73 0 -127 -39t-54 -111h-348q0 98 38 185t107 152t173.5 103t230.5 38 q103 0 195 -36t155.5 -95.5t100.5 -137t37 -159.5q0 -163 -131 -281q192 -128 192 -334q0 -90 -37.5 -172t-104.5 -144t-167.5 -99t-218.5 -37q-168 0 -299 64.5t-201 173t-70 239.5z" />
<glyph unicode="4" horiz-adv-x="1521" d="M143 264v328l713 862h348v-862h215v-328h-215v-264h-348v264h-713zM584 592h272v334z" />
<glyph unicode="5" horiz-adv-x="1425" d="M184 457h348q6 -52 61.5 -90.5t133.5 -38.5q90 0 148.5 48.5t58.5 133.5q0 81 -57 129.5t-150 48.5q-61 0 -113.5 -28.5t-76.5 -77.5h-342l133 872h852v-328h-559l-27 -163q106 32 215 32q202 0 337.5 -142t135.5 -361q0 -98 -38 -189.5t-106.5 -163.5t-174 -115.5 t-230.5 -43.5t-230.5 40.5t-174 107.5t-106.5 152.5t-38 176.5z" />
<glyph unicode="6" horiz-adv-x="1466" d="M205 487q0 152 86 277l446 690h402l-316 -463q213 -23 346.5 -168t133.5 -336q0 -100 -40 -192t-110 -162t-173.5 -111.5t-223.5 -41.5q-121 0 -225.5 41.5t-175 111.5t-110.5 162t-40 192zM553 487q0 -71 55 -125.5t148 -54.5q90 0 144 54.5t54 125.5t-54 126t-144 55 q-93 0 -148 -55t-55 -126z" />
<glyph unicode="7" horiz-adv-x="1376" d="M164 1126v328h1110v-328l-563 -1126h-379l563 1126h-731z" />
<glyph unicode="8" horiz-adv-x="1384" d="M184 465q0 108 50 199t133 157q-101 116 -101 236q0 79 33.5 154.5t91.5 134t142.5 94t179.5 35.5t179.5 -35.5t142 -94t91 -134t33.5 -154.5q0 -121 -100 -236q83 -66 132.5 -156.5t49.5 -199.5q0 -98 -37.5 -186t-104.5 -154.5t-167.5 -105.5t-218.5 -39t-218.5 39 t-168 105.5t-105 154.5t-37.5 186zM532 465q0 -66 51.5 -112t129.5 -46t129 46t51 112t-51 112t-129 46t-129.5 -46t-51.5 -112zM614 1057q0 -40 29.5 -65t69.5 -25t69 25t29 65t-29 65t-69 25t-69.5 -25t-29.5 -65z" />
<glyph unicode="9" horiz-adv-x="1466" d="M205 967q0 100 40 192.5t110 162.5t173.5 111.5t223.5 41.5q121 0 225.5 -41.5t175 -111.5t110.5 -162.5t40 -192.5q0 -152 -86 -277l-447 -690h-401l315 463q-213 23 -346 168t-133 336zM553 967q0 -71 54.5 -126t144.5 -55q93 0 147.5 55t54.5 126t-54.5 125.5 t-147.5 54.5q-90 0 -144.5 -54.5t-54.5 -125.5z" />
<glyph unicode=":" horiz-adv-x="573" d="M143 143q0 69 47.5 116.5t116.5 47.5t116.5 -47.5t47.5 -116.5t-47.5 -116t-116.5 -47t-116.5 47t-47.5 116zM143 829q0 69 47.5 116.5t116.5 47.5t116.5 -47.5t47.5 -116.5t-47.5 -116t-116.5 -47t-116.5 47t-47.5 116z" />
<glyph unicode=";" horiz-adv-x="653" d="M53 -348l133 500h349l-216 -500h-266zM205 829q0 69 47.5 116.5t116.5 47.5t116 -47.5t47 -116.5t-47 -116t-116 -47t-116.5 47t-47.5 116z" />
<glyph unicode="&#x3c;" horiz-adv-x="1310" d="M184 461v301l922 323v-294l-510 -179l510 -180v-295z" />
<glyph unicode="=" horiz-adv-x="1331" d="M205 195v327h921v-327h-921zM205 625v327h921v-327h-921z" />
<glyph unicode="&#x3e;" horiz-adv-x="1331" d="M205 137v295l510 180l-510 179v294l921 -323v-301z" />
<glyph unicode="?" horiz-adv-x="1241" d="M123 950q0 124 45.5 226t120.5 166t168.5 98.5t193.5 34.5q114 0 212 -38t161.5 -98.5t99 -135.5t35.5 -150q0 -142 -95.5 -260t-266.5 -172l-11 -177h-307l-20 383h71q144 0 212.5 46t68.5 124q0 70 -45 110t-109 40q-77 0 -131.5 -52.5t-54.5 -144.5h-348zM469 143 q0 69 47.5 116.5t116.5 47.5t116.5 -47.5t47.5 -116.5t-47.5 -116t-116.5 -47t-116.5 47t-47.5 116z" />
<glyph unicode="@" horiz-adv-x="2109" d="M205 666q0 169 71.5 326.5t188 272t272.5 183t318 68.5q237 0 432 -105.5t306.5 -291t111.5 -412.5q0 -248 -129.5 -392.5t-343.5 -144.5q-112 0 -179 61t-67 179q-20 -50 -89 -86.5t-145 -36.5q-131 0 -224 111t-93 268q0 156 93 267t224 111q72 0 133.5 -32.5 t81.5 -81.5v108h267v-530q0 -133 79 -133q58 0 91.5 70t33.5 221q0 92 -18 174t-61.5 158t-109 131t-166.5 87.5t-228 32.5q-157 0 -290.5 -74.5t-213.5 -209t-80 -299.5q0 -126 45 -233.5t120.5 -179t173.5 -111.5t204 -40q47 0 97.5 12.5t74 22.5t74.5 33l229 -156 q-108 -84 -218 -131t-257 -47q-129 0 -250 37.5t-222 110.5t-176.5 172.5t-118 231t-42.5 278.5zM922 666q0 -46 33 -79.5t79 -33.5t79.5 33.5t33.5 79.5t-34 79t-79 33q-46 0 -79 -33t-33 -79z" />
<glyph unicode="A" horiz-adv-x="1732" d="M164 0l524 1454h397l525 -1454h-361l-98 272h-528l-99 -272h-360zM741 600h291l-145 406z" />
<glyph unicode="B" horiz-adv-x="1378" d="M184 0v1454h482q224 0 355.5 -113t131.5 -297q0 -148 -125 -266q93 -60 150 -146t57 -192q0 -138 -69 -239t-187.5 -151t-271.5 -50h-523zM532 328h175q85 0 132.5 36.5t47.5 96.5t-47.5 96.5t-132.5 36.5h-175v-266zM532 922h134q62 0 100.5 25.5t38.5 76.5t-38.5 76.5 t-100.5 25.5h-134v-204z" />
<glyph unicode="C" horiz-adv-x="1480" d="M184 727q0 210 98 382t265 269t366 97q250 0 424 -140v-348q-12 17 -40 40.5t-74.5 52t-117 48t-147.5 19.5q-178 0 -302 -115.5t-124 -304.5t124 -304.5t302 -115.5q77 0 147.5 19.5t117 48t74.5 52t40 40.5v-348q-173 -139 -424 -139q-199 0 -366 96.5t-265 268.5 t-98 382z" />
<glyph unicode="D" horiz-adv-x="1497" d="M143 0v1454h539q203 0 367 -96.5t255 -262.5t91 -368t-91 -368t-255 -262.5t-367 -96.5h-539zM492 328h190q75 0 139 23t115.5 69.5t81 125t29.5 181.5t-29.5 181.5t-81 125t-115.5 69.5t-139 23h-190v-798z" />
<glyph unicode="E" horiz-adv-x="1105" d="M143 0v1454h861v-328h-512v-233h409v-328h-409v-237h512v-328h-861z" />
<glyph unicode="F" horiz-adv-x="1105" d="M143 0v1454h861v-328h-512v-254h450v-327h-450v-545h-349z" />
<glyph unicode="G" horiz-adv-x="1794" d="M184 727q0 204 95 374t271 272t398 102q176 0 319.5 -77t248.5 -214l-263 -201q-49 70 -126 117t-179 47q-185 0 -300.5 -119t-115.5 -301q0 -183 103 -301.5t272 -118.5q128 0 219 54t136 155h-447v328h836q0 -210 -55 -375t-154.5 -271.5t-235 -162t-299.5 -55.5 q-203 0 -369.5 101.5t-260 272.5t-93.5 373z" />
<glyph unicode="H" horiz-adv-x="1515" d="M143 0v1454h349v-580h573v580h348v-1454h-348v547h-573v-547h-349z" />
<glyph unicode="I" horiz-adv-x="634" d="M164 0v1454h348v-1454h-348z" />
<glyph unicode="J" horiz-adv-x="1349" d="M164 508h348q0 -201 172 -201q94 0 134 51.5t40 178.5v917h348l-2 -917q0 -266 -140 -411.5t-364 -145.5q-72 0 -142.5 15t-143 53.5t-127 96.5t-89 152t-34.5 211z" />
<glyph unicode="K" horiz-adv-x="1548" d="M164 0v1454h348v-528l465 528h448l-563 -641l563 -813h-409l-385 551l-119 -135v-416h-348z" />
<glyph unicode="L" horiz-adv-x="1269" d="M184 0v1454h348v-1126h594v-328h-942z" />
<glyph unicode="M" horiz-adv-x="1953" d="M205 0v1454h348l444 -682l445 682h348v-1454h-348v838l-381 -600h-127l-381 600v-838h-348z" />
<glyph unicode="N" horiz-adv-x="1611" d="M164 0v1454h348l629 -874v874h348v-1454h-348l-629 874v-874h-348z" />
<glyph unicode="O" horiz-adv-x="1822" d="M184 727q0 153 59 292t158.5 238.5t238.5 158.5t292 59q205 0 376.5 -99.5t271 -271.5t99.5 -377t-99.5 -376.5t-271 -271t-376.5 -99.5t-377 99.5t-271.5 271t-99.5 376.5zM532 727q0 -176 112 -298t288 -122t287.5 122t111.5 298t-111.5 298t-287.5 122t-288 -122 t-112 -298z" />
<glyph unicode="P" horiz-adv-x="1378" d="M143 0v1454h584q107 0 205.5 -36t175 -101t122.5 -164t46 -217t-46 -217t-122.5 -164t-175 -101t-205.5 -36h-235v-418h-349zM492 745h235q88 0 144.5 51.5t56.5 139.5q0 87 -56.5 138.5t-144.5 51.5h-235v-381z" />
<glyph unicode="Q" horiz-adv-x="1814" d="M184 727q0 153 59 292t158.5 238.5t238.5 158.5t292 59q205 0 376.5 -99.5t271 -271.5t99.5 -377q0 -242 -139 -436l162 -164l-238 -240l-178 181q-166 -88 -354 -88q-205 0 -377 99.5t-271.5 271t-99.5 376.5zM532 727q0 -176 112 -298t288 -122q56 0 106 15l-174 176 l238 237l190 -194q39 89 39 186q0 176 -111.5 298t-287.5 122t-288 -122t-112 -298z" />
<glyph unicode="R" horiz-adv-x="1398" d="M143 0v1454h584q107 0 205.5 -36t175 -101t122.5 -164t46 -217q0 -150 -71 -265.5t-191 -181.5l282 -489h-391l-241 418h-172v-418h-349zM492 745h235q88 0 144.5 51.5t56.5 139.5q0 87 -56.5 138.5t-144.5 51.5h-235v-381z" />
<glyph unicode="S" horiz-adv-x="1331" d="M184 485h348q0 -87 49 -132.5t126 -45.5q65 0 99 26.5t34 63.5q0 15 -4 27.5t-15.5 25.5t-22.5 23t-34.5 25t-41 25.5t-52.5 31t-60 35.5q-126 77 -205 140t-120.5 122.5t-55.5 111t-14 119.5q0 173 129 282.5t322 109.5q144 0 254.5 -67t168.5 -180.5t58 -254.5h-348 q0 87 -35.5 130.5t-97.5 43.5q-43 0 -73 -21.5t-30 -58.5q0 -43 35 -75t141 -93q121 -70 198.5 -125t137.5 -117t86.5 -128t26.5 -146q0 -77 -25.5 -143t-70.5 -113t-106 -80.5t-131.5 -50t-147.5 -16.5q-103 0 -190.5 29.5t-148 79.5t-102.5 115.5t-62 136.5t-20 144z" />
<glyph unicode="T" horiz-adv-x="1249" d="M143 1126v328h1004v-328h-328v-1126h-348v1126h-328z" />
<glyph unicode="U" horiz-adv-x="1466" d="M143 655v799h349v-799q0 -194 61 -271t201 -77t201 77t61 271v799h348v-799q0 -675 -610 -675q-611 0 -611 675z" />
<glyph unicode="V" horiz-adv-x="1589" d="M143 1454h363l309 -997l309 997h363l-467 -1454h-410z" />
<glyph unicode="W" horiz-adv-x="2498" d="M143 1454h357l297 -987l295 987h356l297 -987l295 987h356l-442 -1454h-420l-264 868l-264 -868h-420z" />
<glyph unicode="X" horiz-adv-x="1765" d="M143 0l549 727l-549 727h422l338 -448l338 448h422l-549 -727l549 -727h-422l-338 449l-338 -449h-422z" />
<glyph unicode="Y" horiz-adv-x="1691" d="M143 1454h394l329 -539l330 539h393l-549 -897v-557h-348v557z" />
<glyph unicode="Z" horiz-adv-x="1492" d="M184 0v328l729 798h-729v328h1186v-328l-729 -798h729v-328h-1186z" />
<glyph unicode="[" horiz-adv-x="921" d="M164 -164v1618h594v-328h-246v-962h246v-328h-594z" />
<glyph unicode="\" horiz-adv-x="1005" d="M102 1454h297l545 -1454h-297z" />
<glyph unicode="]" horiz-adv-x="901" d="M143 -164v328h246v962h-246v328h594v-1618h-594z" />
<glyph unicode="^" horiz-adv-x="1218" d="M102 635l377 819h301l377 -819h-301l-225 491l-228 -491h-301z" />
<glyph unicode="_" horiz-adv-x="1331" d="M61 0h1250v-266h-1250v266z" />
<glyph unicode="`" horiz-adv-x="909" d="M205 1516h348l152 -349h-267z" />
<glyph unicode="a" horiz-adv-x="1368" d="M184 326q0 162 116.5 253t303.5 91q87 0 168 -29.5t105 -58.5q-15 188 -226 188q-101 0 -189.5 -27t-191.5 -75v266q217 123 455 123q500 0 500 -504v-553h-328l-20 63q-22 -24 -104.5 -53.5t-168.5 -29.5q-187 0 -303.5 91.5t-116.5 254.5zM532 326q0 -54 45.5 -87.5 t120.5 -33.5q73 0 126 35.5t53 85.5t-53 85t-126 35t-119.5 -33.5t-46.5 -86.5z" />
<glyph unicode="b" horiz-adv-x="1449" d="M143 0v1536h349v-637q35 67 117.5 112.5t195.5 45.5q145 0 260.5 -72.5t178.5 -195.5t63 -271t-63 -270.5t-178.5 -195t-260.5 -72.5q-113 0 -196 45t-117 112l-21 -137h-328zM532 518q0 -88 57.5 -149.5t153.5 -61.5q97 0 156 61.5t59 149.5t-59 149.5t-156 61.5 q-96 0 -153.5 -61.5t-57.5 -149.5z" />
<glyph unicode="c" horiz-adv-x="1138" d="M184 518q0 143 66.5 266t188.5 198t272 75q171 0 284 -86v-324q-55 48 -108 65t-115 17q-83 0 -151 -57.5t-68 -153.5t68 -153.5t151 -57.5q61 0 114.5 18t108.5 68v-327q-113 -86 -284 -86q-151 0 -272.5 73.5t-188 196.5t-66.5 268z" />
<glyph unicode="d" horiz-adv-x="1490" d="M184 518q0 148 63 271t178.5 195.5t260.5 72.5q113 0 195.5 -45.5t117.5 -112.5v637h349v-1536h-328l-21 137q-34 -67 -117 -112t-196 -45q-145 0 -260.5 72.5t-178.5 195t-63 270.5zM532 518q0 -88 59.5 -149.5t156.5 -61.5q96 0 153 61t57 150t-57 150t-153 61 q-97 0 -156.5 -61.5t-59.5 -149.5z" />
<glyph unicode="e" d="M184 524q0 143 63.5 264.5t182 195t266.5 73.5q222 0 353 -145.5t131 -407.5v-123h-629q22 -61 83.5 -88t180.5 -27q113 0 303 53v-237q-74 -51 -174 -76.5t-199 -25.5q-136 0 -245 44t-177 119.5t-103.5 172.5t-35.5 208zM547 627h295q-13 68 -46.5 95.5t-90.5 27.5 q-123 0 -158 -123z" />
<glyph unicode="f" horiz-adv-x="964" d="M123 709v327h125q0 104 24.5 184t62 127t89.5 77t99.5 40.5t99.5 10.5q74 0 136.5 -20t100.5 -48v-287q-54 27 -112 27q-76 0 -110 -27.5t-40 -83.5h264v-327h-266v-709h-348v709h-125z" />
<glyph unicode="g" horiz-adv-x="1490" d="M184 518q0 148 63 271t178.5 195.5t260.5 72.5q113 0 195.5 -45.5t117.5 -112.5l21 137h328v-962q0 -118 -35.5 -220t-104 -179.5t-177 -122t-245.5 -44.5q-134 0 -283 37.5t-233 85.5v267q86 -32 129.5 -47.5t137.5 -35.5t176 -20q286 0 286 279v63q-34 -67 -117 -112 t-196 -45q-145 0 -260.5 72.5t-178.5 195t-63 270.5zM532 518q0 -88 59.5 -149.5t156.5 -61.5q96 0 153 61t57 150t-57 150t-153 61q-97 0 -156.5 -61.5t-59.5 -149.5z" />
<glyph unicode="h" horiz-adv-x="1409" d="M184 0v1536h348v-625q173 146 359 146q191 0 283 -114t92 -325v-618h-348v451q0 158 -40.5 218t-129.5 60q-40 0 -75.5 -12t-68.5 -39t-52.5 -80t-19.5 -127v-471h-348z" />
<glyph unicode="i" horiz-adv-x="696" d="M123 729v307h450v-1036h-348v709zM213 1311q0 69 47.5 116.5t116.5 47.5t116.5 -47.5t47.5 -116.5t-47.5 -116.5t-116.5 -47.5t-116.5 47.5t-47.5 116.5z" />
<glyph unicode="j" horiz-adv-x="686" d="M61 -471l195 491v689l-102 20v307h450v-1036l-180 -471h-363zM256 1311q0 69 47.5 116.5t116.5 47.5t116.5 -47.5t47.5 -116.5t-47.5 -116.5t-116.5 -47.5t-116.5 47.5t-47.5 116.5z" />
<glyph unicode="k" horiz-adv-x="1499" d="M184 0v1536h348v-846l359 346h485l-467 -450l467 -586h-432l-280 350l-132 -127v-223h-348z" />
<glyph unicode="l" horiz-adv-x="716" d="M143 1229v307h451v-1536h-348v1208z" />
<glyph unicode="m" horiz-adv-x="1978" d="M184 0v1036h328l18 -108q146 129 320 129q102 0 175 -45t112 -127q169 172 364 172q161 0 247.5 -109.5t86.5 -290.5v-657h-348v532q0 91 -32 144t-95 53q-85 0 -130.5 -91t-45.5 -249v-389h-348v532q0 91 -32 144t-95 53q-85 0 -131 -91t-46 -249v-389h-348z" />
<glyph unicode="n" horiz-adv-x="1409" d="M184 0v1036h328l20 -125q173 146 359 146q191 0 283 -114t92 -325v-618h-348v451q0 158 -40.5 218t-129.5 60q-40 0 -75.5 -12t-68.5 -39t-52.5 -80t-19.5 -127v-471h-348z" />
<glyph unicode="o" horiz-adv-x="1449" d="M184 518q0 111 41 209.5t113.5 171.5t179 115.5t230.5 42.5t229.5 -42.5t177 -115.5t112 -171.5t40.5 -209.5t-40.5 -209.5t-112 -171t-177 -115t-229.5 -42.5t-230.5 42.5t-179 115t-113.5 171t-41 209.5zM532 518q0 -88 59.5 -149.5t156.5 -61.5q96 0 153 61t57 150 t-57 150t-153 61q-97 0 -156.5 -61.5t-59.5 -149.5z" />
<glyph unicode="p" horiz-adv-x="1490" d="M184 -471v1507h328l20 -137q34 67 117.5 112.5t196.5 45.5q145 0 260.5 -72.5t178.5 -195.5t63 -271t-63 -270.5t-178.5 -195t-260.5 -72.5q-113 0 -196.5 45t-117.5 112v-608h-348zM573 518q0 -88 57.5 -149.5t153.5 -61.5q97 0 156 61.5t59 149.5t-59 149.5t-156 61.5 q-96 0 -153.5 -61.5t-57.5 -149.5z" />
<glyph unicode="q" horiz-adv-x="1490" d="M184 518q0 148 63 271t178.5 195.5t260.5 72.5q113 0 195.5 -45.5t117.5 -112.5l21 137h328v-1507h-349v608q-34 -67 -117 -112t-196 -45q-145 0 -260.5 72.5t-178.5 195t-63 270.5zM532 518q0 -88 59.5 -149.5t156.5 -61.5q96 0 153 61t57 150t-57 150t-153 61 q-97 0 -156.5 -61.5t-59.5 -149.5z" />
<glyph unicode="r" horiz-adv-x="917" d="M184 0v1036h328l14 -92q102 113 211 113q76 0 119 -43l-45 -305q-38 20 -96 20q-183 0 -183 -340v-389h-348z" />
<glyph unicode="s" horiz-adv-x="1290" d="M184 348h348q0 -38 44.5 -60t117.5 -22q105 0 105 43q0 24 -31 36.5t-149 41.5q-15 4 -23.5 6t-23 6t-27.5 7q-330 85 -330 325q0 98 60.5 173.5t156.5 114t209 38.5q214 0 339.5 -102t125.5 -248h-348q0 24 -20.5 39.5t-42 19.5t-42.5 4q-36 0 -63 -9.5t-27 -29.5 q0 -15 21 -24.5t105 -34.5q83 -25 142 -43q316 -97 316 -328q0 -78 -37.5 -140.5t-102 -101t-146.5 -59t-175 -20.5q-231 0 -366.5 92t-135.5 276z" />
<glyph unicode="t" horiz-adv-x="1003" d="M123 709v327h178v307h348v-307h252v-327h-252v-709h-348v709h-178z" />
<glyph unicode="u" horiz-adv-x="1409" d="M184 418v618h348v-450q0 -158 40.5 -218.5t129.5 -60.5q40 0 75.5 12t68.5 39t52.5 80t19.5 127v471h348v-1036h-328l-20 125q-172 -145 -359 -145q-191 0 -283 113.5t-92 324.5z" />
<glyph unicode="v" horiz-adv-x="1562" d="M164 1036h389l250 -663l248 663h389l-436 -1036h-404z" />
<glyph unicode="w" horiz-adv-x="2140" d="M164 1036h371l186 -590l184 590h371l186 -590l185 590h370l-375 -1036h-362l-188 524l-191 -524h-362z" />
<glyph unicode="x" horiz-adv-x="1529" d="M164 0l407 518l-407 518h428l194 -282l193 282h428l-408 -518l408 -518h-428l-193 283l-194 -283h-428z" />
<glyph unicode="y" horiz-adv-x="1517" d="M164 1036h373l241 -604l244 604h373l-635 -1507h-367l199 471z" />
<glyph unicode="z" horiz-adv-x="1249" d="M184 0v328l471 381h-471v327h942v-327l-471 -381h471v-328h-942z" />
<glyph unicode="{" horiz-adv-x="995" d="M164 481v328q135 0 135 86q0 23 -9.5 48.5t-21 47.5t-21 65t-9.5 97q0 84 39 142.5t117.5 93t185 50t251.5 15.5v-328q-245 0 -245 -116q0 -43 29.5 -101.5t29.5 -113.5q0 -62 -48.5 -106t-92.5 -44q44 0 92.5 -43.5t48.5 -105.5q0 -55 -29.5 -113.5t-29.5 -101.5 q0 -117 245 -117v-328q-145 0 -251.5 15.5t-185 50t-117.5 93t-39 142.5q0 54 9.5 97t21 65t21 47.5t9.5 48.5q0 86 -135 86z" />
<glyph unicode="|" horiz-adv-x="675" d="M205 -164v1782h266v-1782h-266z" />
<glyph unicode="}" horiz-adv-x="974" d="M143 -164v328q246 0 246 117q0 43 -29.5 101.5t-29.5 113.5q0 62 48.5 105.5t92.5 43.5q-44 0 -92.5 44t-48.5 106q0 55 29.5 113.5t29.5 101.5q0 116 -246 116v328q296 0 445 -69t149 -232q0 -68 -15.5 -117t-30.5 -81t-15 -60q0 -86 135 -86v-328q-135 0 -135 -86 q0 -28 15 -60t30.5 -81t15.5 -117q0 -163 -149 -232t-445 -69z" />
<glyph unicode="~" horiz-adv-x="1429" d="M205 489q37 320 301 320q52 0 101.5 -20t81 -43.5t73 -43.5t80.5 -20q46 0 71 23.5t25 82.5l287 -61q-37 -319 -301 -319q-52 0 -101.5 20t-81 43.5t-73 43.5t-80.5 20q-43 0 -69.5 -27.5t-26.5 -79.5z" />
<glyph unicode="&#xa1;" horiz-adv-x="593" d="M143 -492l21 1010h307l21 -1010h-349zM154 819q0 69 47 116.5t116 47.5t116.5 -47.5t47.5 -116.5t-47.5 -116.5t-116.5 -47.5t-116 47.5t-47 116.5z" />
<glyph unicode="&#xa2;" d="M205 518q0 143 66 266t188 198t272 75h25v127h82v-137q103 -19 178 -76v-324q-80 70 -178 80v-418q96 10 178 84v-327q-75 -57 -178 -76v-137h-82v127h-25q-151 0 -272.5 74t-187.5 196.5t-66 267.5zM573 518q0 -85 54.5 -140t128.5 -67v414q-74 -12 -128.5 -67 t-54.5 -140z" />
<glyph unicode="&#xa3;" horiz-adv-x="1466" d="M205 -20v331q100 78 278 78q29 0 43 -2q-11 120 -59 188h-262v82h182q-77 68 -129.5 168.5t-52.5 208.5q0 193 143.5 317t358.5 124q214 0 353.5 -143t139.5 -369h-348q0 184 -160 184q-58 0 -98.5 -37t-40.5 -96q0 -42 18.5 -78.5t43.5 -62t68 -71t75 -89.5l37 -56h280 v-82h-241q40 -107 45 -260q66 -8 104 -8q86 0 160 23.5t119 58.5v-332q-99 -77 -279 -77q-99 0 -252.5 40.5t-247.5 40.5q-86 0 -160 -23t-118 -58z" />
<glyph unicode="&#xa4;" horiz-adv-x="1177" d="M205 303l129 129q-70 88 -73.5 199.5t61.5 202.5l-117 118l59 60l115 -117q92 81 212.5 83.5t215.5 -73.5l108 107l58 -58l-107 -108q74 -95 70.5 -214.5t-82.5 -211.5l119 -117l-60 -59l-120 118q-90 -65 -201.5 -62t-198.5 73l-129 -129zM506 639.5q0 -37.5 29 -66.5 q28 -28 64.5 -28t64.5 28q29 29 29 66.5t-29 65.5q-28 28 -64.5 28t-64.5 -28q-29 -28 -29 -65.5z" />
<glyph unicode="&#xa5;" horiz-adv-x="1855" d="M205 1454h393l330 -539l329 539h394l-549 -897v-55h293v-82h-293v-62h293v-82h-293v-276h-348v276h-291v82h291v62h-291v82h291v55z" />
<glyph unicode="&#xa6;" horiz-adv-x="675" d="M205 -164v594h266v-594h-266zM205 1024v594h266v-594h-266z" />
<glyph unicode="&#xa7;" horiz-adv-x="1085" d="M184 713q0 130 127 207q-96 99 -96 239q0 47 13 91.5t41 85.5t68 71.5t98 49t128 18.5q76 0 139 -24t102.5 -61.5t67 -85t39 -91.5t11.5 -83h-267q0 34 -24 56t-68 22q-31 0 -56.5 -22t-25.5 -64q0 -92 164 -116q56 -8 105 -25.5t94 -47.5t71.5 -79.5t26.5 -112.5 q0 -123 -141 -202q59 -47 95 -111t36 -133q0 -60 -18.5 -113.5t-57.5 -100t-109 -74t-163 -27.5q-77 0 -140 23t-102.5 59t-67 82.5t-38.5 91.5t-11 88h267q0 -38 24.5 -58t67.5 -20q40 0 61 17.5t21 47.5q0 44 -55.5 82t-159.5 66q-47 12 -77 22t-70 30.5t-63 45.5t-40 65 t-17 91zM451 729q0 -35 25.5 -57t80.5 -37q53 9 86 30.5t33 47.5q0 43 -35 65.5t-98 36.5q-92 -26 -92 -86z" />
<glyph unicode="&#xa8;" horiz-adv-x="1167" d="M205 1372q0 69 47.5 116.5t116.5 47.5t116 -47.5t47 -116.5t-47 -116.5t-116 -47.5t-116.5 47.5t-47.5 116.5zM635 1372q0 69 47.5 116.5t116.5 47.5t116.5 -47.5t47.5 -116.5t-47.5 -116.5t-116.5 -47.5t-116.5 47.5t-47.5 116.5z" />
<glyph unicode="&#xa9;" horiz-adv-x="1966" d="M205 768q0 161 62.5 307t167.5 251t250.5 167.5t305.5 62.5q161 0 307 -62.5t252 -167.5t169 -251t63 -307t-63 -307t-169 -251t-252 -167.5t-307 -62.5q-160 0 -305.5 62.5t-250.5 167.5t-167.5 251t-62.5 307zM467 768q0 -106 41 -203t111 -167t167 -111t203 -41 t203 41t167 111t111 167t41 203t-41 203t-111 167t-167 111t-203 41t-203 -41t-167 -111t-111 -167t-41 -203zM557 768q0 103 40 188.5t103 138t136 81t145 28.5q62 0 114 -11.5t93 -33.5t65 -39t54 -43l-103 -241q-82 82 -182 82q-65 0 -111.5 -40.5t-46.5 -109.5 t46.5 -109.5t111.5 -40.5q98 0 182 87l103 -246q-30 -26 -54 -43t-65 -39t-93 -33.5t-114 -11.5q-57 0 -115.5 17t-114 53t-99 86.5t-69.5 123t-26 156.5z" />
<glyph unicode="&#xab;" horiz-adv-x="1490" d="M205 502l252 407h379l-252 -407l252 -408h-379zM696 502l252 407h379l-252 -407l252 -408h-379z" />
<glyph unicode="&#xac;" horiz-adv-x="1331" d="M205 451v327h921v-545h-327v218h-594z" />
<glyph unicode="&#xad;" horiz-adv-x="1290" d="M205 379v328h921v-328h-921z" />
<glyph unicode="&#xae;" horiz-adv-x="1966" d="M205 762q0 161 62.5 307t167.5 251t250.5 167.5t305.5 62.5q161 0 307 -62.5t252 -167.5t169 -251t63 -307t-63 -307t-169 -251.5t-252 -168t-307 -62.5q-160 0 -305.5 62.5t-250.5 168t-167.5 251.5t-62.5 307zM467 762q0 -106 41 -203t111 -167t167 -111t203 -41 t203 41t167 111t111 167t41 203t-41 203t-111 167t-167 111t-203 41t-203 -41t-167 -111t-111 -167t-41 -203zM680 385v758h324q138 0 227.5 -80t89.5 -213q0 -83 -36 -146.5t-99 -99.5l135 -219h-315l-60 119v-119h-266zM946 823h58q16 0 24.5 1t17.5 7t9 19t-9 19t-17.5 7 t-24.5 1h-58v-54z" />
<glyph unicode="&#xaf;" horiz-adv-x="1054" d="M205 1188v328h645v-328h-645z" />
<glyph unicode="&#xb0;" horiz-adv-x="942" d="M164 1137q0 141 98.5 239.5t239.5 98.5t239.5 -98.5t98.5 -239.5t-98.5 -239.5t-239.5 -98.5t-239.5 98.5t-98.5 239.5zM410 1137q0 -40 26 -66.5t66 -26.5t66 26.5t26 66.5t-26 66t-66 26t-66 -26t-26 -66z" />
<glyph unicode="&#xb1;" horiz-adv-x="1331" d="M205 -10v327h297v228h-297v327h297v297h327v-297h297v-327h-297v-228h297v-327h-921z" />
<glyph unicode="&#xb4;" horiz-adv-x="909" d="M205 1167l151 349h349l-234 -349h-266z" />
<glyph unicode="&#xb6;" horiz-adv-x="1634" d="M205 967q0 147 73.5 259.5t192.5 170t262 57.5h266v-1454h-266v479q-85 0 -163.5 21.5t-144.5 63.5t-115.5 100t-77 136t-27.5 167zM1163 0v1454h267v-1454h-267z" />
<glyph unicode="&#xb7;" horiz-adv-x="450" d="M61 532q0 69 47.5 116.5t116.5 47.5t116.5 -47.5t47.5 -116.5t-47.5 -116t-116.5 -47t-116.5 47t-47.5 116z" />
<glyph unicode="&#xb8;" horiz-adv-x="937" d="M205 -471l61 147h8q76 0 112 1t81.5 6t63.5 17t18 32q0 18 -9.5 28.5t-30 15.5t-38 6t-47.5 1l-193 -8l97 225h235l-65 -102q235 0 235 -160q0 -38 -14 -69.5t-42 -53t-58.5 -37.5t-74 -25t-78 -15t-82 -7.5t-73 -2t-63.5 0t-43 0.5z" />
<glyph unicode="&#xbb;" horiz-adv-x="1265" d="M-20 94l251 408l-251 407h378l252 -407l-252 -408h-378zM471 94l252 408l-252 407h379l252 -407l-252 -408h-379z" />
<glyph unicode="&#xbf;" horiz-adv-x="995" d="M-82 -90q0 142 96 260t267 172l10 176h307l20 -383h-71q-144 0 -212.5 -46t-68.5 -124q0 -70 45 -109.5t109 -39.5q77 0 131.5 52t54.5 144h348q0 -124 -45.5 -226t-120.5 -165.5t-168.5 -98t-193.5 -34.5q-114 0 -212 38t-161.5 98.5t-99 135.5t-35.5 150zM281 819 q0 69 47 116.5t116 47.5t116.5 -47.5t47.5 -116.5t-47.5 -116.5t-116.5 -47.5t-116 47.5t-47 116.5z" />
<glyph unicode="&#xc0;" horiz-adv-x="1732" d="M164 0l524 1454h397l525 -1454h-361l-98 272h-528l-99 -272h-360zM524 2007h348l152 -348h-266zM741 600h291l-145 406z" />
<glyph unicode="&#xc1;" horiz-adv-x="1732" d="M164 0l524 1454h397l525 -1454h-361l-98 272h-528l-99 -272h-360zM741 600h291l-145 406zM752 1659l151 348h348l-233 -348h-266z" />
<glyph unicode="&#xc2;" horiz-adv-x="1732" d="M164 0l524 1454h397l525 -1454h-361l-98 272h-528l-99 -272h-360zM496 1659l264 348h254l264 -348h-303l-88 151l-88 -151h-303zM741 600h291l-145 406z" />
<glyph unicode="&#xc3;" horiz-adv-x="1732" d="M164 0l524 1454h397l525 -1454h-361l-98 272h-528l-99 -272h-360zM375 1708q37 320 301 320q52 0 101.5 -20t81 -43.5t73 -43.5t80.5 -20q46 0 71 23.5t25 82.5l287 -61q-37 -320 -301 -320q-52 0 -101.5 20t-81 43.5t-73 43.5t-80.5 20q-43 0 -69.5 -27t-26.5 -79z M741 600h291l-145 406z" />
<glyph unicode="&#xc4;" horiz-adv-x="1732" d="M164 0l524 1454h397l525 -1454h-361l-98 272h-528l-99 -272h-360zM508 1864q0 69 47.5 116.5t116.5 47.5t116.5 -47.5t47.5 -116.5t-47.5 -116.5t-116.5 -47.5t-116.5 47.5t-47.5 116.5zM741 600h291l-145 406zM938 1864q0 69 47.5 116.5t116.5 47.5t116.5 -47.5 t47.5 -116.5t-47.5 -116.5t-116.5 -47.5t-116.5 47.5t-47.5 116.5z" />
<glyph unicode="&#xc5;" horiz-adv-x="1732" d="M164 0l524 1454h397l525 -1454h-361l-98 272h-528l-99 -272h-360zM700 1843q0 77 54 131t131 54q76 0 130 -54t54 -131t-53.5 -130.5t-130.5 -53.5t-131 54t-54 130zM741 600h291l-145 406zM844 1843q0 -17 12 -29t29 -12t29 12t12 29t-12 29t-29 12t-29 -12t-12 -29z " />
<glyph unicode="&#xc6;" horiz-adv-x="2099" d="M164 0l704 1454h1129v-328h-512v-233h409v-328h-409v-237h512v-328h-860v283h-461l-137 -283h-375zM834 610h303v516h-54z" />
<glyph unicode="&#xc7;" horiz-adv-x="1480" d="M184 727q0 210 98 382t265 269t366 97q250 0 424 -140v-348q-12 17 -40 40.5t-74.5 52t-117 48t-147.5 19.5q-178 0 -302 -115.5t-124 -304.5t124 -304.5t302 -115.5q77 0 147.5 19.5t117 48t74.5 52t40 40.5v-348q-134 -104 -309 -131l-57 -90q235 0 235 -160 q0 -38 -14 -69.5t-42 -53t-58.5 -37.5t-74 -25t-78 -15t-82 -7.5t-73 -2t-63.5 0t-43 0.5l61 147h8q76 0 112 1t81.5 6t63.5 17t18 32q0 18 -9.5 28.5t-30 15.5t-38 6t-47.5 1l-192 -8l92 213q-264 42 -438.5 248t-174.5 491z" />
<glyph unicode="&#xc8;" horiz-adv-x="1105" d="M143 0v1454h861v-328h-512v-233h409v-328h-409v-237h512v-328h-861zM219 2007h348l152 -348h-266z" />
<glyph unicode="&#xc9;" horiz-adv-x="1105" d="M143 0v1454h861v-328h-512v-233h409v-328h-409v-237h512v-328h-861zM446 1659l152 348h348l-233 -348h-267z" />
<glyph unicode="&#xca;" horiz-adv-x="1105" d="M143 0v1454h861v-328h-512v-233h409v-328h-409v-237h512v-328h-861zM190 1659l265 348h254l264 -348h-303l-88 151l-88 -151h-304z" />
<glyph unicode="&#xcb;" horiz-adv-x="1105" d="M143 0v1454h861v-328h-512v-233h409v-328h-409v-237h512v-328h-861zM203 1864q0 69 47.5 116.5t116.5 47.5t116 -47.5t47 -116.5t-47 -116.5t-116 -47.5t-116.5 47.5t-47.5 116.5zM633 1864q0 69 47.5 116.5t116.5 47.5t116.5 -47.5t47.5 -116.5t-47.5 -116.5 t-116.5 -47.5t-116.5 47.5t-47.5 116.5z" />
<glyph unicode="&#xcc;" horiz-adv-x="634" d="M-18 2007h348l151 -348h-266zM164 0v1454h348v-1454h-348z" />
<glyph unicode="&#xcd;" horiz-adv-x="634" d="M164 0v1454h348v-1454h-348zM209 1659l151 348h349l-234 -348h-266z" />
<glyph unicode="&#xce;" horiz-adv-x="634" d="M-47 1659l264 348h254l264 -348h-303l-88 151l-88 -151h-303zM164 0v1454h348v-1454h-348z" />
<glyph unicode="&#xcf;" horiz-adv-x="634" d="M-35 1864q0 69 47.5 116.5t116.5 47.5t116.5 -47.5t47.5 -116.5t-47.5 -116.5t-116.5 -47.5t-116.5 47.5t-47.5 116.5zM164 0v1454h348v-1454h-348zM395 1864q0 69 47.5 116.5t116.5 47.5t116.5 -47.5t47.5 -116.5t-47.5 -116.5t-116.5 -47.5t-116.5 47.5t-47.5 116.5z " />
<glyph unicode="&#xd0;" horiz-adv-x="1497" d="M-137 563v328h280v563h539q203 0 367 -96.5t255 -262.5t91 -368t-91 -368t-255 -262.5t-367 -96.5h-539v563h-280zM492 328h190q75 0 139 23t115.5 69.5t81 125t29.5 181.5t-29.5 181.5t-81 125t-115.5 69.5t-139 23h-190v-235h292v-328h-292v-235z" />
<glyph unicode="&#xd1;" horiz-adv-x="1611" d="M164 0v1454h348l629 -874v874h348v-1454h-348l-629 874v-874h-348zM313 1708q37 320 301 320q52 0 101.5 -20t81 -43.5t73 -43.5t80.5 -20q46 0 71.5 23.5t25.5 82.5l286 -61q-37 -320 -301 -320q-52 0 -101.5 20t-81 43.5t-73 43.5t-80.5 20q-43 0 -69.5 -27t-26.5 -79z " />
<glyph unicode="&#xd2;" horiz-adv-x="1822" d="M184 727q0 153 59 292t158.5 238.5t238.5 158.5t292 59q205 0 376.5 -99.5t271 -271.5t99.5 -377t-99.5 -376.5t-271 -271t-376.5 -99.5t-377 99.5t-271.5 271t-99.5 376.5zM532 727q0 -176 112 -298t288 -122t287.5 122t111.5 298t-111.5 298t-287.5 122t-288 -122 t-112 -298zM571 2007h349l151 -348h-266z" />
<glyph unicode="&#xd3;" horiz-adv-x="1822" d="M184 727q0 153 59 292t158.5 238.5t238.5 158.5t292 59q205 0 376.5 -99.5t271 -271.5t99.5 -377t-99.5 -376.5t-271 -271t-376.5 -99.5t-377 99.5t-271.5 271t-99.5 376.5zM532 727q0 -176 112 -298t288 -122t287.5 122t111.5 298t-111.5 298t-287.5 122t-288 -122 t-112 -298zM799 1659l151 348h348l-233 -348h-266z" />
<glyph unicode="&#xd4;" horiz-adv-x="1822" d="M184 727q0 153 59 292t158.5 238.5t238.5 158.5t292 59q205 0 376.5 -99.5t271 -271.5t99.5 -377t-99.5 -376.5t-271 -271t-376.5 -99.5t-377 99.5t-271.5 271t-99.5 376.5zM532 727q0 -176 112 -298t288 -122t287.5 122t111.5 298t-111.5 298t-287.5 122t-288 -122 t-112 -298zM543 1659l264 348h254l264 -348h-303l-88 151l-88 -151h-303z" />
<glyph unicode="&#xd5;" horiz-adv-x="1822" d="M184 727q0 153 59 292t158.5 238.5t238.5 158.5t292 59q205 0 376.5 -99.5t271 -271.5t99.5 -377t-99.5 -376.5t-271 -271t-376.5 -99.5t-377 99.5t-271.5 271t-99.5 376.5zM422 1708q37 320 301 320q52 0 101.5 -20t81 -43.5t73 -43.5t80.5 -20q46 0 71 23.5t25 82.5 l287 -61q-37 -320 -301 -320q-52 0 -101.5 20t-81 43.5t-73 43.5t-80.5 20q-43 0 -69.5 -27t-26.5 -79zM532 727q0 -176 112 -298t288 -122t287.5 122t111.5 298t-111.5 298t-287.5 122t-288 -122t-112 -298z" />
<glyph unicode="&#xd6;" horiz-adv-x="1822" d="M184 727q0 153 59 292t158.5 238.5t238.5 158.5t292 59q205 0 376.5 -99.5t271 -271.5t99.5 -377t-99.5 -376.5t-271 -271t-376.5 -99.5t-377 99.5t-271.5 271t-99.5 376.5zM532 727q0 -176 112 -298t288 -122t287.5 122t111.5 298t-111.5 298t-287.5 122t-288 -122 t-112 -298zM555 1864q0 69 47.5 116.5t116.5 47.5t116.5 -47.5t47.5 -116.5t-47.5 -116.5t-116.5 -47.5t-116.5 47.5t-47.5 116.5zM985 1864q0 69 47.5 116.5t116.5 47.5t116.5 -47.5t47.5 -116.5t-47.5 -116.5t-116.5 -47.5t-116.5 47.5t-47.5 116.5z" />
<glyph unicode="&#xd7;" horiz-adv-x="1234" d="M174 367l211 211l-209 208l232 232l210 -209l209 209l232 -232l-209 -208l211 -211l-234 -234l-209 211l-210 -211z" />
<glyph unicode="&#xd8;" horiz-adv-x="1822" d="M184 727q0 153 59 292t158.5 238.5t238.5 158.5t292 59q226 0 414 -123l139 184h102l-176 -233q125 -103 196.5 -253.5t71.5 -322.5q0 -205 -99.5 -376.5t-271 -271t-376.5 -99.5q-233 0 -426 131l-146 -193h-102l184 242q-121 105 -189.5 252.5t-68.5 314.5zM532 727 q0 -180 113 -299l500 659q-96 60 -213 60q-176 0 -288 -122t-112 -298zM707 375q96 -68 225 -68q176 0 287.5 122t111.5 298q0 186 -123 309z" />
<glyph unicode="&#xd9;" horiz-adv-x="1466" d="M143 655v799h349v-799q0 -194 61 -271t201 -77t201 77t61 271v799h348v-799q0 -675 -610 -675q-611 0 -611 675zM393 2007h348l152 -348h-266z" />
<glyph unicode="&#xda;" horiz-adv-x="1466" d="M143 655v799h349v-799q0 -194 61 -271t201 -77t201 77t61 271v799h348v-799q0 -675 -610 -675q-611 0 -611 675zM621 1659l151 348h348l-233 -348h-266z" />
<glyph unicode="&#xdb;" horiz-adv-x="1466" d="M143 655v799h349v-799q0 -194 61 -271t201 -77t201 77t61 271v799h348v-799q0 -675 -610 -675q-611 0 -611 675zM365 1659l264 348h254l264 -348h-303l-88 151l-88 -151h-303z" />
<glyph unicode="&#xdc;" horiz-adv-x="1466" d="M143 655v799h349v-799q0 -194 61 -271t201 -77t201 77t61 271v799h348v-799q0 -675 -610 -675q-611 0 -611 675zM377 1864q0 69 47.5 116.5t116.5 47.5t116.5 -47.5t47.5 -116.5t-47.5 -116.5t-116.5 -47.5t-116.5 47.5t-47.5 116.5zM807 1864q0 69 47.5 116.5 t116.5 47.5t116.5 -47.5t47.5 -116.5t-47.5 -116.5t-116.5 -47.5t-116.5 47.5t-47.5 116.5z" />
<glyph unicode="&#xdd;" horiz-adv-x="1691" d="M143 1454h394l329 -539l330 539h393l-549 -897v-557h-348v557zM733 1659l152 348h348l-234 -348h-266z" />
<glyph unicode="&#xde;" horiz-adv-x="1255" d="M143 0v1536h349v-266h174q107 0 205.5 -36t175 -101t122 -164t45.5 -217q0 -95 -29.5 -178t-82 -145t-121.5 -106.5t-149.5 -67t-165.5 -22.5h-174v-233h-349zM492 561h174q88 0 144 51.5t56 139.5t-56 139t-144 51h-174v-381z" />
<glyph unicode="&#xdf;" horiz-adv-x="1527" d="M184 0v956q0 82 17.5 155t58 140.5t102 116.5t156 78t213.5 29q99 0 182.5 -27.5t139 -70.5t94.5 -98t56.5 -109t17.5 -103q0 -136 -95 -268q116 -66 187 -165t71 -220q0 -83 -27.5 -158t-79 -134t-134 -93.5t-185.5 -34.5q-157 0 -282 88v334q60 -45 112 -69.5 t109 -24.5q139 0 139 112q0 76 -69.5 125t-190.5 49h-39v287h39q38 0 67 35.5t29 85.5q0 57 -38 94t-111 37q-84 0 -137.5 -47.5t-53.5 -143.5v-956h-348z" />
<glyph unicode="&#xe0;" horiz-adv-x="1368" d="M184 326q0 162 116.5 253t303.5 91q87 0 168 -29.5t105 -58.5q-15 188 -226 188q-101 0 -189.5 -27t-191.5 -75v266q217 123 455 123q500 0 500 -504v-553h-328l-20 63q-22 -24 -104.5 -53.5t-168.5 -29.5q-187 0 -303.5 91.5t-116.5 254.5zM365 1589h348l151 -348h-266z M532 326q0 -54 45.5 -87.5t120.5 -33.5q73 0 126 35.5t53 85.5t-53 85t-126 35t-119.5 -33.5t-46.5 -86.5z" />
<glyph unicode="&#xe1;" horiz-adv-x="1368" d="M184 326q0 162 116.5 253t303.5 91q87 0 168 -29.5t105 -58.5q-15 188 -226 188q-101 0 -189.5 -27t-191.5 -75v266q217 123 455 123q500 0 500 -504v-553h-328l-20 63q-22 -24 -104.5 -53.5t-168.5 -29.5q-187 0 -303.5 91.5t-116.5 254.5zM532 326q0 -54 45.5 -87.5 t120.5 -33.5q73 0 126 35.5t53 85.5t-53 85t-126 35t-119.5 -33.5t-46.5 -86.5zM592 1241l151 348h349l-234 -348h-266z" />
<glyph unicode="&#xe2;" horiz-adv-x="1368" d="M184 326q0 162 116.5 253t303.5 91q87 0 168 -29.5t105 -58.5q-15 188 -226 188q-101 0 -189.5 -27t-191.5 -75v266q217 123 455 123q500 0 500 -504v-553h-328l-20 63q-22 -24 -104.5 -53.5t-168.5 -29.5q-187 0 -303.5 91.5t-116.5 254.5zM336 1241l264 348h254 l264 -348h-303l-88 152l-88 -152h-303zM532 326q0 -54 45.5 -87.5t120.5 -33.5q73 0 126 35.5t53 85.5t-53 85t-126 35t-119.5 -33.5t-46.5 -86.5z" />
<glyph unicode="&#xe3;" horiz-adv-x="1368" d="M184 326q0 162 116.5 253t303.5 91q87 0 168 -29.5t105 -58.5q-15 188 -226 188q-101 0 -189.5 -27t-191.5 -75v266q217 123 455 123q500 0 500 -504v-553h-328l-20 63q-22 -24 -104.5 -53.5t-168.5 -29.5q-187 0 -303.5 91.5t-116.5 254.5zM215 1290q37 320 301 320 q52 0 101.5 -20t81 -43.5t73 -43.5t80.5 -20q46 0 71 23.5t25 82.5l287 -61q-37 -320 -301 -320q-52 0 -101.5 20t-81 43.5t-73 43.5t-80.5 20q-43 0 -69.5 -27t-26.5 -79zM532 326q0 -54 45.5 -87.5t120.5 -33.5q73 0 126 35.5t53 85.5t-53 85t-126 35t-119.5 -33.5 t-46.5 -86.5z" />
<glyph unicode="&#xe4;" horiz-adv-x="1368" d="M184 326q0 162 116.5 253t303.5 91q87 0 168 -29.5t105 -58.5q-15 188 -226 188q-101 0 -189.5 -27t-191.5 -75v266q217 123 455 123q500 0 500 -504v-553h-328l-20 63q-22 -24 -104.5 -53.5t-168.5 -29.5q-187 0 -303.5 91.5t-116.5 254.5zM348 1446q0 69 47.5 116.5 t116.5 47.5t116.5 -47.5t47.5 -116.5t-47.5 -116.5t-116.5 -47.5t-116.5 47.5t-47.5 116.5zM532 326q0 -54 45.5 -87.5t120.5 -33.5q73 0 126 35.5t53 85.5t-53 85t-126 35t-119.5 -33.5t-46.5 -86.5zM778 1446q0 69 47.5 116.5t116.5 47.5t116.5 -47.5t47.5 -116.5 t-47.5 -116.5t-116.5 -47.5t-116.5 47.5t-47.5 116.5z" />
<glyph unicode="&#xe5;" horiz-adv-x="1368" d="M184 326q0 162 116.5 253t303.5 91q87 0 168 -29.5t105 -58.5q-15 188 -226 188q-101 0 -189.5 -27t-191.5 -75v266q217 123 455 123q500 0 500 -504v-553h-328l-20 63q-22 -24 -104.5 -53.5t-168.5 -29.5q-187 0 -303.5 91.5t-116.5 254.5zM532 326q0 -54 45.5 -87.5 t120.5 -33.5q73 0 126 35.5t53 85.5t-53 85t-126 35t-119.5 -33.5t-46.5 -86.5zM541 1425q0 77 54 131t130 54t130 -54t54 -131t-53.5 -130.5t-130.5 -53.5t-130.5 53.5t-53.5 130.5zM684 1425q0 -17 12 -29t29 -12t29 12t12 29t-12 29t-29 12t-29 -12t-12 -29z" />
<glyph unicode="&#xe6;" horiz-adv-x="2078" d="M184 326q0 162 116.5 253t303.5 91q87 0 168 -29.5t105 -58.5q-15 188 -226 188q-101 0 -189.5 -27t-191.5 -75v266q217 123 455 123q258 0 381 -133q143 133 346 133q222 0 352.5 -145.5t130.5 -407.5v-123h-628q22 -61 83.5 -88t180.5 -27q113 0 303 53v-237 q-74 -51 -174 -76.5t-199 -25.5q-159 0 -276 57v-37h-328l-20 63q-22 -24 -104.5 -53.5t-168.5 -29.5q-187 0 -303.5 91.5t-116.5 254.5zM532 326q0 -54 45.5 -87.5t120.5 -33.5q73 0 126 35.5t53 85.5t-53 85t-126 35t-119.5 -33.5t-46.5 -86.5zM1303 627h294 q-13 68 -46.5 95.5t-90.5 27.5q-122 0 -157 -123z" />
<glyph unicode="&#xe7;" horiz-adv-x="1138" d="M184 518q0 143 66.5 266t188.5 198t272 75q171 0 284 -86v-324q-55 48 -108 65t-115 17q-83 0 -151 -57.5t-68 -153.5t68 -153.5t151 -57.5q61 0 114.5 18t108.5 68v-327q-78 -60 -184 -78l-57 -90q235 0 235 -160q0 -38 -14 -69.5t-42 -53t-58.5 -37.5t-74 -25t-78 -15 t-82 -7.5t-73 -2t-63.5 0t-43 0.5l61 147h8q76 0 112 1t81.5 6t63.5 17t18 32q0 18 -9.5 28.5t-30 15.5t-38 6t-47.5 1l-193 -8l95 219q-179 44 -288.5 190t-109.5 334z" />
<glyph unicode="&#xe8;" d="M184 524q0 143 63.5 264.5t182 195t266.5 73.5q222 0 353 -145.5t131 -407.5v-123h-629q22 -61 83.5 -88t180.5 -27q113 0 303 53v-237q-74 -51 -174 -76.5t-199 -25.5q-136 0 -245 44t-177 119.5t-103.5 172.5t-35.5 208zM336 1589h348l152 -348h-267zM547 627h295 q-13 68 -46.5 95.5t-90.5 27.5q-123 0 -158 -123z" />
<glyph unicode="&#xe9;" d="M184 524q0 143 63.5 264.5t182 195t266.5 73.5q222 0 353 -145.5t131 -407.5v-123h-629q22 -61 83.5 -88t180.5 -27q113 0 303 53v-237q-74 -51 -174 -76.5t-199 -25.5q-136 0 -245 44t-177 119.5t-103.5 172.5t-35.5 208zM547 627h295q-13 68 -46.5 95.5t-90.5 27.5 q-123 0 -158 -123zM563 1241l152 348h348l-234 -348h-266z" />
<glyph unicode="&#xea;" d="M184 524q0 143 63.5 264.5t182 195t266.5 73.5q222 0 353 -145.5t131 -407.5v-123h-629q22 -61 83.5 -88t180.5 -27q113 0 303 53v-237q-74 -51 -174 -76.5t-199 -25.5q-136 0 -245 44t-177 119.5t-103.5 172.5t-35.5 208zM307 1241l264 348h254l265 -348h-304l-88 152 l-88 -152h-303zM547 627h295q-13 68 -46.5 95.5t-90.5 27.5q-123 0 -158 -123z" />
<glyph unicode="&#xeb;" d="M184 524q0 143 63.5 264.5t182 195t266.5 73.5q222 0 353 -145.5t131 -407.5v-123h-629q22 -61 83.5 -88t180.5 -27q113 0 303 53v-237q-74 -51 -174 -76.5t-199 -25.5q-136 0 -245 44t-177 119.5t-103.5 172.5t-35.5 208zM319 1446q0 69 47.5 116.5t116.5 47.5 t116.5 -47.5t47.5 -116.5t-47.5 -116.5t-116.5 -47.5t-116.5 47.5t-47.5 116.5zM547 627h295q-13 68 -46.5 95.5t-90.5 27.5q-123 0 -158 -123zM750 1446q0 69 47 116.5t116 47.5t116.5 -47.5t47.5 -116.5t-47.5 -116.5t-116.5 -47.5t-116 47.5t-47 116.5z" />
<glyph unicode="&#xec;" horiz-adv-x="696" d="M16 1589h349l151 -348h-266zM123 729v307h450v-1036h-348v709z" />
<glyph unicode="&#xed;" horiz-adv-x="696" d="M123 729v307h450v-1036h-348v709zM244 1241l151 348h348l-233 -348h-266z" />
<glyph unicode="&#xee;" horiz-adv-x="696" d="M-12 1241l264 348h254l264 -348h-303l-88 152l-88 -152h-303zM123 729v307h450v-1036h-348v709z" />
<glyph unicode="&#xef;" horiz-adv-x="696" d="M0 1311q0 69 47.5 116.5t116.5 47.5t116.5 -47.5t47.5 -116.5t-47.5 -116.5t-116.5 -47.5t-116.5 47.5t-47.5 116.5zM123 729v307h450v-1036h-348v709zM430 1311q0 69 47.5 116.5t116.5 47.5t116.5 -47.5t47.5 -116.5t-47.5 -116.5t-116.5 -47.5t-116.5 47.5t-47.5 116.5 z" />
<glyph unicode="&#xf0;" horiz-adv-x="1384" d="M184 467q0 132 67 243.5t188.5 177.5t271.5 66q31 0 47 -2q-70 98 -193 140l-241 -183v103l139 104q-34 5 -76.5 7.5t-64.5 3t-77 0t-61 -0.5v328q329 0 570 -119l211 160v-102l-134 -101q198 -121 304 -317t106 -447q0 -246 -147.5 -397t-382.5 -151q-227 0 -377 141.5 t-150 345.5zM532 467q0 -67 50.5 -113.5t130.5 -46.5t130 46t50 114t-50 114t-130 46t-130.5 -46.5t-50.5 -113.5z" />
<glyph unicode="&#xf1;" horiz-adv-x="1409" d="M184 0v1036h328l20 -125q173 146 359 146q191 0 283 -114t92 -325v-618h-348v451q0 158 -40.5 218t-129.5 60q-40 0 -75.5 -12t-68.5 -39t-52.5 -80t-19.5 -127v-471h-348zM211 1290q37 320 301 320q52 0 101.5 -20t81 -43.5t73 -43.5t80.5 -20q46 0 71 23.5t25 82.5 l287 -61q-37 -320 -301 -320q-52 0 -101.5 20t-81 43.5t-73 43.5t-80.5 20q-43 0 -69.5 -27t-26.5 -79z" />
<glyph unicode="&#xf2;" horiz-adv-x="1449" d="M184 518q0 111 41 209.5t113.5 171.5t179 115.5t230.5 42.5t229.5 -42.5t177 -115.5t112 -171.5t40.5 -209.5t-40.5 -209.5t-112 -171t-177 -115t-229.5 -42.5t-230.5 42.5t-179 115t-113.5 171t-41 209.5zM389 1589h348l152 -348h-266zM532 518q0 -88 59.5 -149.5 t156.5 -61.5q96 0 153 61t57 150t-57 150t-153 61q-97 0 -156.5 -61.5t-59.5 -149.5z" />
<glyph unicode="&#xf3;" horiz-adv-x="1449" d="M184 518q0 111 41 209.5t113.5 171.5t179 115.5t230.5 42.5t229.5 -42.5t177 -115.5t112 -171.5t40.5 -209.5t-40.5 -209.5t-112 -171t-177 -115t-229.5 -42.5t-230.5 42.5t-179 115t-113.5 171t-41 209.5zM532 518q0 -88 59.5 -149.5t156.5 -61.5q96 0 153 61t57 150 t-57 150t-153 61q-97 0 -156.5 -61.5t-59.5 -149.5zM616 1241l152 348h348l-233 -348h-267z" />
<glyph unicode="&#xf4;" horiz-adv-x="1449" d="M184 518q0 111 41 209.5t113.5 171.5t179 115.5t230.5 42.5t229.5 -42.5t177 -115.5t112 -171.5t40.5 -209.5t-40.5 -209.5t-112 -171t-177 -115t-229.5 -42.5t-230.5 42.5t-179 115t-113.5 171t-41 209.5zM360 1241l265 348h254l264 -348h-303l-88 152l-88 -152h-304z M532 518q0 -88 59.5 -149.5t156.5 -61.5q96 0 153 61t57 150t-57 150t-153 61q-97 0 -156.5 -61.5t-59.5 -149.5z" />
<glyph unicode="&#xf5;" horiz-adv-x="1449" d="M184 518q0 111 41 209.5t113.5 171.5t179 115.5t230.5 42.5t229.5 -42.5t177 -115.5t112 -171.5t40.5 -209.5t-40.5 -209.5t-112 -171t-177 -115t-229.5 -42.5t-230.5 42.5t-179 115t-113.5 171t-41 209.5zM240 1290q37 320 301 320q52 0 101.5 -20t81 -43.5t73 -43.5 t80.5 -20q46 0 71 23.5t25 82.5l287 -61q-8 -69 -27.5 -124t-54.5 -100.5t-90.5 -70.5t-129.5 -25q-52 0 -101.5 20t-81 43.5t-72.5 43.5t-80 20q-43 0 -70 -27t-27 -79zM532 518q0 -88 59.5 -149.5t156.5 -61.5q96 0 153 61t57 150t-57 150t-153 61q-97 0 -156.5 -61.5 t-59.5 -149.5z" />
<glyph unicode="&#xf6;" horiz-adv-x="1449" d="M184 518q0 111 41 209.5t113.5 171.5t179 115.5t230.5 42.5t229.5 -42.5t177 -115.5t112 -171.5t40.5 -209.5t-40.5 -209.5t-112 -171t-177 -115t-229.5 -42.5t-230.5 42.5t-179 115t-113.5 171t-41 209.5zM373 1446q0 69 47.5 116.5t116.5 47.5t116 -47.5t47 -116.5 t-47 -116.5t-116 -47.5t-116.5 47.5t-47.5 116.5zM532 518q0 -88 59.5 -149.5t156.5 -61.5q96 0 153 61t57 150t-57 150t-153 61q-97 0 -156.5 -61.5t-59.5 -149.5zM803 1446q0 69 47.5 116.5t116.5 47.5t116 -47.5t47 -116.5t-47 -116.5t-116 -47.5t-116.5 47.5 t-47.5 116.5z" />
<glyph unicode="&#xf7;" horiz-adv-x="1310" d="M246 410v327h921v-327h-921zM543 164q0 69 47.5 116.5t116.5 47.5t116 -47.5t47 -116.5t-47 -116.5t-116 -47.5t-116.5 47.5t-47.5 116.5zM543 983q0 69 47.5 116.5t116.5 47.5t116 -47.5t47 -116.5t-47 -116.5t-116 -47.5t-116.5 47.5t-47.5 116.5z" />
<glyph unicode="&#xf8;" horiz-adv-x="1447" d="M182 518q0 148 69.5 270.5t199 195.5t294.5 73q170 0 297 -76l105 137h102l-139 -182q93 -74 144 -183t51 -235q0 -111 -40.5 -209.5t-112.5 -171t-177.5 -115t-229.5 -42.5q-167 0 -301 75l-104 -137h-102l139 184q-93 74 -144 182.5t-51 233.5zM530 518q0 -83 54 -143 l254 336q-40 18 -93 18q-97 0 -156 -61.5t-59 -149.5zM649 328q43 -21 96 -21q96 0 153.5 61.5t57.5 149.5t-53 144z" />
<glyph unicode="&#xf9;" horiz-adv-x="1409" d="M184 418v618h348v-450q0 -158 40.5 -218.5t129.5 -60.5q40 0 75.5 12t68.5 39t52.5 80t19.5 127v471h348v-1036h-328l-20 125q-172 -145 -359 -145q-191 0 -283 113.5t-92 324.5zM375 1589h348l151 -348h-266z" />
<glyph unicode="&#xfa;" horiz-adv-x="1409" d="M184 418v618h348v-450q0 -158 40.5 -218.5t129.5 -60.5q40 0 75.5 12t68.5 39t52.5 80t19.5 127v471h348v-1036h-328l-20 125q-172 -145 -359 -145q-191 0 -283 113.5t-92 324.5zM602 1241l152 348h348l-234 -348h-266z" />
<glyph unicode="&#xfb;" horiz-adv-x="1409" d="M184 418v618h348v-450q0 -158 40.5 -218.5t129.5 -60.5q40 0 75.5 12t68.5 39t52.5 80t19.5 127v471h348v-1036h-328l-20 125q-172 -145 -359 -145q-191 0 -283 113.5t-92 324.5zM346 1241l264 348h254l264 -348h-303l-88 152l-88 -152h-303z" />
<glyph unicode="&#xfc;" horiz-adv-x="1409" d="M184 418v618h348v-450q0 -158 40.5 -218.5t129.5 -60.5q40 0 75.5 12t68.5 39t52.5 80t19.5 127v471h348v-1036h-328l-20 125q-172 -145 -359 -145q-191 0 -283 113.5t-92 324.5zM358 1446q0 69 47.5 116.5t116.5 47.5t116.5 -47.5t47.5 -116.5t-47.5 -116.5 t-116.5 -47.5t-116.5 47.5t-47.5 116.5zM788 1446q0 69 47.5 116.5t116.5 47.5t116.5 -47.5t47.5 -116.5t-47.5 -116.5t-116.5 -47.5t-116.5 47.5t-47.5 116.5z" />
<glyph unicode="&#xfd;" horiz-adv-x="1517" d="M164 1036h373l241 -604l244 604h373l-635 -1507h-367l199 471zM659 1241l152 348h348l-233 -348h-267z" />
<glyph unicode="&#xfe;" horiz-adv-x="1449" d="M184 -471v2007h348v-616q32 62 108 99.5t165 37.5q145 0 260.5 -72.5t178.5 -195.5t63 -271t-63 -270.5t-178.5 -195t-260.5 -72.5q-89 0 -165 37.5t-108 99.5v-588h-348zM512 518q0 -88 57.5 -149.5t153.5 -61.5q97 0 156 61.5t59 149.5t-59 149.5t-156 61.5 q-96 0 -153.5 -61.5t-57.5 -149.5z" />
<glyph unicode="&#xff;" horiz-adv-x="1517" d="M164 1036h373l241 -604l244 604h373l-635 -1507h-367l199 471zM416 1446q0 69 47.5 116.5t116.5 47.5t116 -47.5t47 -116.5t-47 -116.5t-116 -47.5t-116.5 47.5t-47.5 116.5zM846 1446q0 69 47.5 116.5t116.5 47.5t116.5 -47.5t47.5 -116.5t-47.5 -116.5t-116.5 -47.5 t-116.5 47.5t-47.5 116.5z" />
<glyph unicode="&#x100;" horiz-adv-x="1732" d="M164 0l524 1454h397l525 -1454h-361l-98 272h-528l-99 -272h-360zM565 1679v328h645v-328h-645zM741 600h291l-145 406z" />
<glyph unicode="&#x101;" horiz-adv-x="1368" d="M184 326q0 162 116.5 253t303.5 91q87 0 168 -29.5t105 -58.5q-15 188 -226 188q-101 0 -189.5 -27t-191.5 -75v266q217 123 455 123q500 0 500 -504v-553h-328l-20 63q-22 -24 -104.5 -53.5t-168.5 -29.5q-187 0 -303.5 91.5t-116.5 254.5zM406 1262v327h645v-327h-645z M532 326q0 -54 45.5 -87.5t120.5 -33.5q73 0 126 35.5t53 85.5t-53 85t-126 35t-119.5 -33.5t-46.5 -86.5z" />
<glyph unicode="&#x102;" horiz-adv-x="1732" d="M164 0l524 1454h397l525 -1454h-361l-98 272h-528l-99 -272h-360zM453 2007h266q0 -48 39 -85.5t127 -37.5t127 37.5t39 85.5h266q0 -76 -27 -137t-70.5 -99.5t-101.5 -64.5t-115.5 -36.5t-117.5 -10.5t-117.5 10.5t-115.5 36.5t-101.5 64.5t-70.5 99.5t-27 137zM741 600 h291l-145 406z" />
<glyph unicode="&#x103;" horiz-adv-x="1368" d="M184 326q0 162 116.5 253t303.5 91q87 0 168 -29.5t105 -58.5q-15 188 -226 188q-101 0 -189.5 -27t-191.5 -75v266q217 123 455 123q500 0 500 -504v-553h-328l-20 63q-22 -24 -104.5 -53.5t-168.5 -29.5q-187 0 -303.5 91.5t-116.5 254.5zM293 1589h266q0 -48 39 -85.5 t127 -37.5t127 37.5t39 85.5h266q0 -76 -27 -137t-70.5 -99.5t-101.5 -64.5t-115.5 -36.5t-117.5 -10.5t-117.5 10.5t-115.5 36.5t-101.5 64.5t-70.5 99.5t-27 137zM532 326q0 -54 45.5 -87.5t120.5 -33.5q73 0 126 35.5t53 85.5t-53 85t-126 35t-119.5 -33.5t-46.5 -86.5z " />
<glyph unicode="&#x104;" horiz-adv-x="1732" d="M164 0l524 1454h397l525 -1454h-45q-21 -23 -35 -47.5t-17.5 -46t9.5 -35.5t43 -14q97 0 204 57v-266q-33 -33 -60 -54t-86.5 -43t-129.5 -22q-60 0 -114.5 27t-90.5 75t-52 106.5t-1 128.5t63 134h-49l-98 272h-528l-99 -272h-360zM741 600h291l-145 406z" />
<glyph unicode="&#x105;" horiz-adv-x="1368" d="M184 326q0 162 116.5 253t303.5 91q87 0 168 -29.5t105 -58.5q-15 188 -226 188q-101 0 -189.5 -27t-191.5 -75v266q217 123 455 123q500 0 500 -504v-553h-29q-21 -23 -35 -47.5t-17.5 -46t9.5 -35.5t43 -14q98 0 205 57v-266q-32 -32 -59.5 -53.5t-87.5 -43.5t-130 -22 q-60 0 -114.5 27t-90 75t-52 106.5t-1 128.5t63.5 134h-33l-20 63q-22 -24 -104.5 -53.5t-168.5 -29.5q-187 0 -303.5 91.5t-116.5 254.5zM532 326q0 -54 45.5 -87.5t120.5 -33.5q73 0 126 35.5t53 85.5t-53 85t-126 35t-119.5 -33.5t-46.5 -86.5z" />
<glyph unicode="&#x106;" horiz-adv-x="1480" d="M184 727q0 210 98 382t265 269t366 97q250 0 424 -140v-348q-12 17 -40 40.5t-74.5 52t-117 48t-147.5 19.5q-178 0 -302 -115.5t-124 -304.5t124 -304.5t302 -115.5q77 0 147.5 19.5t117 48t74.5 52t40 40.5v-348q-173 -139 -424 -139q-199 0 -366 96.5t-265 268.5 t-98 382zM764 1659l151 348h349l-234 -348h-266z" />
<glyph unicode="&#x107;" horiz-adv-x="1138" d="M184 518q0 143 66.5 266t188.5 198t272 75q171 0 284 -86v-324q-55 48 -108 65t-115 17q-83 0 -151 -57.5t-68 -153.5t68 -153.5t151 -57.5q61 0 114.5 18t108.5 68v-327q-113 -86 -284 -86q-151 0 -272.5 73.5t-188 196.5t-66.5 268zM541 1241l151 348h348l-233 -348 h-266z" />
<glyph unicode="&#x10a;" horiz-adv-x="1480" d="M184 727q0 210 98 382t265 269t366 97q250 0 424 -140v-348q-12 17 -40 40.5t-74.5 52t-117 48t-147.5 19.5q-178 0 -302 -115.5t-124 -304.5t124 -304.5t302 -115.5q77 0 147.5 19.5t117 48t74.5 52t40 40.5v-348q-173 -139 -424 -139q-199 0 -366 96.5t-265 268.5 t-98 382zM733 1864q0 69 47.5 116.5t116.5 47.5t116.5 -47.5t47.5 -116.5t-47.5 -116.5t-116.5 -47.5t-116.5 47.5t-47.5 116.5z" />
<glyph unicode="&#x10b;" horiz-adv-x="1138" d="M184 518q0 143 66.5 266t188.5 198t272 75q171 0 284 -86v-324q-55 48 -108 65t-115 17q-83 0 -151 -57.5t-68 -153.5t68 -153.5t151 -57.5q61 0 114.5 18t108.5 68v-327q-113 -86 -284 -86q-151 0 -272.5 73.5t-188 196.5t-66.5 268zM510 1446q0 69 47.5 116.5 t116.5 47.5t116.5 -47.5t47.5 -116.5t-47.5 -116.5t-116.5 -47.5t-116.5 47.5t-47.5 116.5z" />
<glyph unicode="&#x10c;" horiz-adv-x="1480" d="M184 727q0 210 98 382t265 269t366 97q250 0 424 -140v-348q-12 17 -40 40.5t-74.5 52t-117 48t-147.5 19.5q-178 0 -302 -115.5t-124 -304.5t124 -304.5t302 -115.5q77 0 147.5 19.5t117 48t74.5 52t40 40.5v-348q-173 -139 -424 -139q-199 0 -366 96.5t-265 268.5 t-98 382zM506 2007h303l88 -152l88 152h303l-264 -348h-254z" />
<glyph unicode="&#x10d;" horiz-adv-x="1138" d="M184 518q0 143 66.5 266t188.5 198t272 75q171 0 284 -86v-324q-55 48 -108 65t-115 17q-83 0 -151 -57.5t-68 -153.5t68 -153.5t151 -57.5q61 0 114.5 18t108.5 68v-327q-113 -86 -284 -86q-151 0 -272.5 73.5t-188 196.5t-66.5 268zM283 1589h303l88 -151l88 151h303 l-264 -348h-254z" />
<glyph unicode="&#x10e;" horiz-adv-x="1497" d="M143 0v1454h539q203 0 367 -96.5t255 -262.5t91 -368t-91 -368t-255 -262.5t-367 -96.5h-539zM229 2007h303l89 -152l88 152h303l-264 -348h-254zM492 328h190q75 0 139 23t115.5 69.5t81 125t29.5 181.5t-29.5 181.5t-81 125t-115.5 69.5t-139 23h-190v-798z" />
<glyph unicode="&#x10f;" horiz-adv-x="1540" d="M184 518q0 148 63 271t178.5 195.5t260.5 72.5q113 0 195.5 -45.5t117.5 -112.5v637h349v-1536h-328l-21 137q-34 -67 -117 -112t-196 -45q-145 0 -260.5 72.5t-178.5 195t-63 270.5zM532 518q0 -88 59.5 -149.5t156.5 -61.5q96 0 153 61t57 150t-57 150t-153 61 q-97 0 -156.5 -61.5t-59.5 -149.5zM1409 1036l133 500h348l-215 -500h-266z" />
<glyph unicode="&#x110;" horiz-adv-x="1497" d="M-137 563v328h280v563h539q203 0 367 -96.5t255 -262.5t91 -368t-91 -368t-255 -262.5t-367 -96.5h-539v563h-280zM492 328h190q75 0 139 23t115.5 69.5t81 125t29.5 181.5t-29.5 181.5t-81 125t-115.5 69.5t-139 23h-190v-235h292v-328h-292v-235z" />
<glyph unicode="&#x111;" horiz-adv-x="1490" d="M184 518q0 148 63 271t178.5 195.5t260.5 72.5q113 0 195.5 -45.5t117.5 -112.5v207h-407v328h407v102h349v-102h165v-328h-165v-1106h-328l-21 137q-34 -67 -117 -112t-196 -45q-145 0 -260.5 72.5t-178.5 195t-63 270.5zM532 518q0 -88 59.5 -149.5t156.5 -61.5 q96 0 153 61t57 150t-57 150t-153 61q-97 0 -156.5 -61.5t-59.5 -149.5z" />
<glyph unicode="&#x112;" horiz-adv-x="1105" d="M143 0v1454h861v-328h-512v-233h409v-328h-409v-237h512v-328h-861zM260 1679v328h645v-328h-645z" />
<glyph unicode="&#x113;" d="M184 524q0 143 63.5 264.5t182 195t266.5 73.5q222 0 353 -145.5t131 -407.5v-123h-629q22 -61 83.5 -88t180.5 -27q113 0 303 53v-237q-74 -51 -174 -76.5t-199 -25.5q-136 0 -245 44t-177 119.5t-103.5 172.5t-35.5 208zM377 1262v327h645v-327h-645zM547 627h295 q-13 68 -46.5 95.5t-90.5 27.5q-123 0 -158 -123z" />
<glyph unicode="&#x116;" horiz-adv-x="1105" d="M143 0v1454h861v-328h-512v-233h409v-328h-409v-237h512v-328h-861zM416 1864q0 69 47.5 116.5t116.5 47.5t116 -47.5t47 -116.5t-47 -116.5t-116 -47.5t-116.5 47.5t-47.5 116.5z" />
<glyph unicode="&#x117;" d="M184 524q0 143 63.5 264.5t182 195t266.5 73.5q222 0 353 -145.5t131 -407.5v-123h-629q22 -61 83.5 -88t180.5 -27q113 0 303 53v-237q-74 -51 -174 -76.5t-199 -25.5q-136 0 -245 44t-177 119.5t-103.5 172.5t-35.5 208zM532 1446q0 69 47.5 116.5t116.5 47.5 t116.5 -47.5t47.5 -116.5t-47.5 -116.5t-116.5 -47.5t-116.5 47.5t-47.5 116.5zM547 627h295q-13 68 -46.5 95.5t-90.5 27.5q-123 0 -158 -123z" />
<glyph unicode="&#x118;" horiz-adv-x="1105" d="M143 0v1454h861v-328h-512v-233h409v-328h-409v-237h512v-328h-170q-21 -23 -35 -47.5t-17.5 -46t9.5 -35.5t43 -14q97 0 204 57v-266q-33 -33 -60 -54t-86.5 -43t-129.5 -22q-60 0 -114.5 27t-90.5 75t-52 106.5t-1 128.5t63 134h-424z" />
<glyph unicode="&#x119;" d="M184 524q0 143 63.5 264.5t182 195t266.5 73.5q222 0 353 -145.5t131 -407.5v-123h-629q22 -61 83.5 -88t180.5 -27q113 0 303 53v-237q-111 -74 -268 -94q-25 -31 -36 -60t0 -50t48 -21q98 0 205 57v-266q-33 -33 -60 -54t-86.5 -43t-129.5 -22q-75 0 -138.5 42 t-97.5 107t-27 151.5t64 166.5q-197 43 -302.5 188.5t-105.5 339.5zM547 627h295q-13 68 -46.5 95.5t-90.5 27.5q-123 0 -158 -123z" />
<glyph unicode="&#x11a;" horiz-adv-x="1105" d="M143 0v1454h861v-328h-512v-233h409v-328h-409v-237h512v-328h-861zM188 2007h304l88 -152l88 152h303l-264 -348h-254z" />
<glyph unicode="&#x11b;" d="M184 524q0 143 63.5 264.5t182 195t266.5 73.5q222 0 353 -145.5t131 -407.5v-123h-629q22 -61 83.5 -88t180.5 -27q113 0 303 53v-237q-74 -51 -174 -76.5t-199 -25.5q-136 0 -245 44t-177 119.5t-103.5 172.5t-35.5 208zM305 1589h303l88 -151l88 151h303l-264 -348 h-254zM547 627h295q-13 68 -46.5 95.5t-90.5 27.5q-123 0 -158 -123z" />
<glyph unicode="&#x11e;" horiz-adv-x="1794" d="M184 727q0 204 95 374t271 272t398 102q176 0 319.5 -77t248.5 -214l-263 -201q-49 70 -126 117t-179 47q-185 0 -300.5 -119t-115.5 -301q0 -183 103 -301.5t272 -118.5q128 0 219 54t136 155h-447v328h836q0 -210 -55 -375t-154.5 -271.5t-235 -162t-299.5 -55.5 q-203 0 -369.5 101.5t-260 272.5t-93.5 373zM496 2007h266q0 -48 39 -85.5t127 -37.5t127 37.5t39 85.5h266q0 -76 -27 -137t-70.5 -99.5t-101.5 -64.5t-115.5 -36.5t-117.5 -10.5t-117.5 10.5t-115.5 36.5t-101.5 64.5t-70.5 99.5t-27 137z" />
<glyph unicode="&#x11f;" horiz-adv-x="1490" d="M184 518q0 148 63 271t178.5 195.5t260.5 72.5q113 0 195.5 -45.5t117.5 -112.5l21 137h328v-962q0 -118 -35.5 -220t-104 -179.5t-177 -122t-245.5 -44.5q-134 0 -283 37.5t-233 85.5v267q86 -32 129.5 -47.5t137.5 -35.5t176 -20q286 0 286 279v63q-34 -67 -117 -112 t-196 -45q-145 0 -260.5 72.5t-178.5 195t-63 270.5zM346 1589h266q0 -48 39 -85.5t127 -37.5t127 37.5t39 85.5h266q0 -76 -27 -137t-70.5 -99.5t-101.5 -64.5t-115.5 -36.5t-117.5 -10.5t-117.5 10.5t-115.5 36.5t-101.5 64.5t-70.5 99.5t-27 137zM532 518 q0 -88 59.5 -149.5t156.5 -61.5q96 0 153 61t57 150t-57 150t-153 61q-97 0 -156.5 -61.5t-59.5 -149.5z" />
<glyph unicode="&#x120;" horiz-adv-x="1794" d="M184 727q0 204 95 374t271 272t398 102q176 0 319.5 -77t248.5 -214l-263 -201q-49 70 -126 117t-179 47q-185 0 -300.5 -119t-115.5 -301q0 -183 103 -301.5t272 -118.5q128 0 219 54t136 155h-447v328h836q0 -210 -55 -375t-154.5 -271.5t-235 -162t-299.5 -55.5 q-203 0 -369.5 101.5t-260 272.5t-93.5 373zM764 1864q0 69 47.5 116.5t116.5 47.5t116.5 -47.5t47.5 -116.5t-47.5 -116.5t-116.5 -47.5t-116.5 47.5t-47.5 116.5z" />
<glyph unicode="&#x121;" horiz-adv-x="1490" d="M184 518q0 148 63 271t178.5 195.5t260.5 72.5q113 0 195.5 -45.5t117.5 -112.5l21 137h328v-962q0 -118 -35.5 -220t-104 -179.5t-177 -122t-245.5 -44.5q-134 0 -283 37.5t-233 85.5v267q86 -32 129.5 -47.5t137.5 -35.5t176 -20q286 0 286 279v63q-34 -67 -117 -112 t-196 -45q-145 0 -260.5 72.5t-178.5 195t-63 270.5zM532 518q0 -88 59.5 -149.5t156.5 -61.5q96 0 153 61t57 150t-57 150t-153 61q-97 0 -156.5 -61.5t-59.5 -149.5zM614 1446q0 69 47.5 116.5t116.5 47.5t116.5 -47.5t47.5 -116.5t-47.5 -116.5t-116.5 -47.5t-116.5 47.5 t-47.5 116.5z" />
<glyph unicode="&#x122;" horiz-adv-x="1794" d="M184 727q0 204 95 374t271 272t398 102q176 0 319.5 -77t248.5 -214l-263 -201q-49 70 -126 117t-179 47q-185 0 -300.5 -119t-115.5 -301q0 -183 103 -301.5t272 -118.5q128 0 219 54t136 155h-447v328h836q0 -210 -55 -375t-154.5 -271.5t-235 -162t-299.5 -55.5 q-203 0 -369.5 101.5t-260 272.5t-93.5 373zM631 -623l133 500h348l-215 -500h-266z" />
<glyph unicode="&#x123;" horiz-adv-x="1490" d="M184 518q0 148 63 271t178.5 195.5t260.5 72.5q113 0 195.5 -45.5t117.5 -112.5l21 137h328v-962q0 -118 -35.5 -220t-104 -179.5t-177 -122t-245.5 -44.5q-134 0 -283 37.5t-233 85.5v267q86 -32 129.5 -47.5t137.5 -35.5t176 -20q286 0 286 279v63q-34 -67 -117 -112 t-196 -45q-145 0 -260.5 72.5t-178.5 195t-63 270.5zM532 518q0 -88 59.5 -149.5t156.5 -61.5q96 0 153 61t57 150t-57 150t-153 61q-97 0 -156.5 -61.5t-59.5 -149.5zM604 1262l215 499h266l-133 -499h-348z" />
<glyph unicode="&#x126;" horiz-adv-x="1515" d="M-55 993v328h198v133h349v-133h573v133h348v-133h191v-328h-191v-993h-348v547h-573v-547h-349v993h-198zM492 874h573v119h-573v-119z" />
<glyph unicode="&#x127;" horiz-adv-x="1409" d="M14 1106v328h170v102h348v-102h404v-328h-404v-195q173 146 359 146q191 0 283 -114t92 -325v-618h-348v451q0 158 -40.5 218t-129.5 60q-40 0 -75.5 -12t-68.5 -39t-52.5 -80t-19.5 -127v-471h-348v1106h-170z" />
<glyph unicode="&#x12a;" horiz-adv-x="634" d="M23 1679v328h645v-328h-645zM164 0v1454h348v-1454h-348z" />
<glyph unicode="&#x12b;" horiz-adv-x="696" d="M57 1262v327h645v-327h-645zM123 729v307h450v-1036h-348v709z" />
<glyph unicode="&#x12e;" horiz-adv-x="634" d="M145.5 -134q15.5 70 63.5 134h-45v1454h348v-1454h-37q-21 -23 -35 -47.5t-17.5 -46t9.5 -35.5t43 -14q98 0 205 57v-266q-32 -32 -59.5 -53.5t-87.5 -43.5t-130 -22q-60 0 -114.5 27t-90 75t-52 106.5t-1 128.5z" />
<glyph unicode="&#x12f;" horiz-adv-x="696" d="M123 729v307h450v-1036h-43q-21 -23 -35 -47.5t-17.5 -46t9.5 -35.5t43 -14q98 0 205 57v-266q-33 -33 -60 -54t-86.5 -43t-129.5 -22q-60 0 -114.5 27t-90.5 75t-52 106.5t-1 128.5t63 134h-39v709zM213 1311q0 69 47.5 116.5t116.5 47.5t116.5 -47.5t47.5 -116.5 t-47.5 -116.5t-116.5 -47.5t-116.5 47.5t-47.5 116.5z" />
<glyph unicode="&#x130;" horiz-adv-x="634" d="M164 0v1454h348v-1454h-348zM178 1864q0 69 47.5 116.5t116.5 47.5t116.5 -47.5t47.5 -116.5t-47.5 -116.5t-116.5 -47.5t-116.5 47.5t-47.5 116.5z" />
<glyph unicode="&#x131;" horiz-adv-x="696" d="M123 729v307h450v-1036h-348v709z" />
<glyph unicode="&#x136;" horiz-adv-x="1548" d="M164 0v1454h348v-528l465 528h448l-563 -641l563 -813h-409l-385 551l-119 -135v-416h-348zM436 -623l133 500h349l-216 -500h-266z" />
<glyph unicode="&#x137;" horiz-adv-x="1499" d="M184 0v1536h348v-846l359 346h485l-467 -450l467 -586h-432l-280 350l-132 -127v-223h-348zM426 -623l133 500h348l-215 -500h-266z" />
<glyph unicode="&#x139;" horiz-adv-x="1269" d="M184 0v1454h348v-1126h594v-328h-942zM229 1659l152 348h348l-233 -348h-267z" />
<glyph unicode="&#x13a;" horiz-adv-x="716" d="M143 1229v307h451v-1536h-348v1208zM276 1741l152 348h348l-233 -348h-267z" />
<glyph unicode="&#x13b;" horiz-adv-x="1269" d="M184 0v1454h348v-1126h594v-328h-942zM307 -623l133 500h348l-215 -500h-266z" />
<glyph unicode="&#x13c;" horiz-adv-x="716" d="M113 -623l133 500h348l-215 -500h-266zM143 1229v307h451v-1536h-348v1208z" />
<glyph unicode="&#x13d;" horiz-adv-x="1269" d="M-29 2007h303l88 -152l89 152h303l-265 -348h-253zM184 0v1454h348v-1126h594v-328h-942z" />
<glyph unicode="&#x13e;" horiz-adv-x="1071" d="M143 1229v307h451v-1536h-348v1208zM672 1036l133 500h348l-215 -500h-266z" />
<glyph unicode="&#x141;" horiz-adv-x="1269" d="M49 557v102l135 103v692h348v-430l158 119v-103l-158 -118v-594h594v-328h-942v659z" />
<glyph unicode="&#x142;" horiz-adv-x="716" d="M90 352v103l156 116v637l-103 21v307h451v-702l137 104v-102l-137 -105v-731h-348v469z" />
<glyph unicode="&#x143;" horiz-adv-x="1611" d="M164 0v1454h348l629 -874v874h348v-1454h-348l-629 874v-874h-348zM690 1659l152 348h348l-234 -348h-266z" />
<glyph unicode="&#x144;" horiz-adv-x="1409" d="M184 0v1036h328l20 -125q173 146 359 146q191 0 283 -114t92 -325v-618h-348v451q0 158 -40.5 218t-129.5 60q-40 0 -75.5 -12t-68.5 -39t-52.5 -80t-19.5 -127v-471h-348zM588 1241l151 348h348l-233 -348h-266z" />
<glyph unicode="&#x145;" horiz-adv-x="1611" d="M164 0v1454h348l629 -874v874h348v-1454h-348l-629 874v-874h-348zM526 -623l133 500h349l-215 -500h-267z" />
<glyph unicode="&#x146;" horiz-adv-x="1409" d="M184 0v1036h328l20 -125q173 146 359 146q191 0 283 -114t92 -325v-618h-348v451q0 158 -40.5 218t-129.5 60q-40 0 -75.5 -12t-68.5 -39t-52.5 -80t-19.5 -127v-471h-348zM424 -623l133 500h348l-215 -500h-266z" />
<glyph unicode="&#x147;" horiz-adv-x="1611" d="M164 0v1454h348l629 -874v874h348v-1454h-348l-629 874v-874h-348zM432 2007h303l88 -152l88 152h303l-264 -348h-254z" />
<glyph unicode="&#x148;" horiz-adv-x="1409" d="M184 0v1036h328l20 -125q173 146 359 146q191 0 283 -114t92 -325v-618h-348v451q0 158 -40.5 218t-129.5 60q-40 0 -75.5 -12t-68.5 -39t-52.5 -80t-19.5 -127v-471h-348zM330 1589h303l88 -151l88 151h303l-264 -348h-254z" />
<glyph unicode="&#x14a;" horiz-adv-x="1693" d="M164 0v1454h348l629 -874v874h348v-1507q0 -104 -24.5 -184t-62 -127t-89.5 -77t-99.5 -40.5t-99.5 -10.5q-185 0 -278 68v277q63 -17 112 -17q61 0 100.5 10.5t59 32.5t26.5 47.5t7 65.5v8l-629 874v-874h-348z" />
<glyph unicode="&#x14b;" horiz-adv-x="1409" d="M184 0v1036h328l20 -125q173 146 359 146q191 0 283 -114t92 -325v-671q0 -104 -24.5 -184t-62 -127t-89.5 -77t-99.5 -40.5t-99.5 -10.5q-186 0 -279 68v277q63 -17 113 -17q61 0 100.5 10.5t59 32.5t26.5 47.5t7 65.5v459q0 158 -40.5 218t-129.5 60q-40 0 -75.5 -12 t-68.5 -39t-52.5 -80t-19.5 -127v-471h-348z" />
<glyph unicode="&#x14c;" horiz-adv-x="1822" d="M184 727q0 153 59 292t158.5 238.5t238.5 158.5t292 59q205 0 376.5 -99.5t271 -271.5t99.5 -377t-99.5 -376.5t-271 -271t-376.5 -99.5t-377 99.5t-271.5 271t-99.5 376.5zM532 727q0 -176 112 -298t288 -122t287.5 122t111.5 298t-111.5 298t-287.5 122t-288 -122 t-112 -298zM612 1679v328h645v-328h-645z" />
<glyph unicode="&#x14d;" horiz-adv-x="1449" d="M184 518q0 111 41 209.5t113.5 171.5t179 115.5t230.5 42.5t229.5 -42.5t177 -115.5t112 -171.5t40.5 -209.5t-40.5 -209.5t-112 -171t-177 -115t-229.5 -42.5t-230.5 42.5t-179 115t-113.5 171t-41 209.5zM430 1262v327h645v-327h-645zM532 518q0 -88 59.5 -149.5 t156.5 -61.5q96 0 153 61t57 150t-57 150t-153 61q-97 0 -156.5 -61.5t-59.5 -149.5z" />
<glyph unicode="&#x150;" horiz-adv-x="1822" d="M184 727q0 153 59 292t158.5 238.5t238.5 158.5t292 59q205 0 376.5 -99.5t271 -271.5t99.5 -377t-99.5 -376.5t-271 -271t-376.5 -99.5t-377 99.5t-271.5 271t-99.5 376.5zM532 727q0 -176 112 -298t288 -122t287.5 122t111.5 298t-111.5 298t-287.5 122t-288 -122 t-112 -298zM571 1659l152 348h348l-233 -348h-267zM1010 1659l151 348h348l-233 -348h-266z" />
<glyph unicode="&#x151;" horiz-adv-x="1449" d="M184 518q0 111 41 209.5t113.5 171.5t179 115.5t230.5 42.5t229.5 -42.5t177 -115.5t112 -171.5t40.5 -209.5t-40.5 -209.5t-112 -171t-177 -115t-229.5 -42.5t-230.5 42.5t-179 115t-113.5 171t-41 209.5zM389 1241l152 348h348l-234 -348h-266zM532 518 q0 -88 59.5 -149.5t156.5 -61.5q96 0 153 61t57 150t-57 150t-153 61q-97 0 -156.5 -61.5t-59.5 -149.5zM827 1241l152 348h348l-233 -348h-267z" />
<glyph unicode="&#x152;" horiz-adv-x="2428" d="M184 727q0 153 59 292t158.5 238.5t238.5 158.5t292 59q156 0 293.5 -59t240.5 -165v203h861v-328h-512v-233h409v-328h-409v-237h512v-328h-861v203q-103 -106 -240.5 -164.5t-293.5 -58.5q-205 0 -377 99.5t-271.5 271t-99.5 376.5zM532 727q0 -176 112 -298t288 -122 t287.5 122t111.5 298t-111.5 298t-287.5 122t-288 -122t-112 -298z" />
<glyph unicode="&#x153;" horiz-adv-x="2138" d="M184 518q0 111 41 209.5t113.5 171.5t179 115.5t230.5 42.5q244 0 399 -152q149 152 364 152q222 0 353 -145.5t131 -407.5v-123h-629q22 -61 83.5 -88t180.5 -27q113 0 303 53v-237q-74 -51 -173.5 -76.5t-198.5 -25.5q-259 0 -412 153q-156 -153 -401 -153 q-124 0 -230.5 42.5t-179 115t-113.5 171t-41 209.5zM532 518q0 -88 59.5 -149.5t156.5 -61.5q96 0 153 61t57 150t-57 150t-153 61q-97 0 -156.5 -61.5t-59.5 -149.5zM1362 627h295q-13 68 -46.5 95.5t-90.5 27.5q-123 0 -158 -123z" />
<glyph unicode="&#x154;" horiz-adv-x="1398" d="M143 0v1454h584q107 0 205.5 -36t175 -101t122.5 -164t46 -217q0 -150 -71 -265.5t-191 -181.5l282 -489h-391l-241 418h-172v-418h-349zM492 745h235q88 0 144.5 51.5t56.5 139.5q0 87 -56.5 138.5t-144.5 51.5h-235v-381zM516 1659l152 348h348l-234 -348h-266z" />
<glyph unicode="&#x155;" horiz-adv-x="917" d="M184 0v1036h328l14 -92q102 113 211 113q76 0 119 -43l-45 -305q-38 20 -96 20q-183 0 -183 -340v-389h-348zM397 1241l152 348h348l-233 -348h-267z" />
<glyph unicode="&#x156;" horiz-adv-x="1398" d="M143 0v1454h584q107 0 205.5 -36t175 -101t122.5 -164t46 -217q0 -150 -71 -265.5t-191 -181.5l282 -489h-391l-241 418h-172v-418h-349zM393 -623l133 500h348l-215 -500h-266zM492 745h235q88 0 144.5 51.5t56.5 139.5q0 87 -56.5 138.5t-144.5 51.5h-235v-381z" />
<glyph unicode="&#x157;" horiz-adv-x="917" d="M49 -623l133 500h348l-215 -500h-266zM184 0v1036h328l14 -92q102 113 211 113q76 0 119 -43l-45 -305q-38 20 -96 20q-183 0 -183 -340v-389h-348z" />
<glyph unicode="&#x158;" horiz-adv-x="1398" d="M143 0v1454h584q107 0 205.5 -36t175 -101t122.5 -164t46 -217q0 -150 -71 -265.5t-191 -181.5l282 -489h-391l-241 418h-172v-418h-349zM258 2007h303l88 -152l88 152h303l-264 -348h-254zM492 745h235q88 0 144.5 51.5t56.5 139.5q0 87 -56.5 138.5t-144.5 51.5h-235 v-381z" />
<glyph unicode="&#x159;" horiz-adv-x="917" d="M139 1589h303l88 -151l88 151h304l-265 -348h-254zM184 0v1036h328l14 -92q102 113 211 113q76 0 119 -43l-45 -305q-38 20 -96 20q-183 0 -183 -340v-389h-348z" />
<glyph unicode="&#x15a;" horiz-adv-x="1331" d="M184 485h348q0 -87 49 -132.5t126 -45.5q65 0 99 26.5t34 63.5q0 15 -4 27.5t-15.5 25.5t-22.5 23t-34.5 25t-41 25.5t-52.5 31t-60 35.5q-126 77 -205 140t-120.5 122.5t-55.5 111t-14 119.5q0 173 129 282.5t322 109.5q144 0 254.5 -67t168.5 -180.5t58 -254.5h-348 q0 87 -35.5 130.5t-97.5 43.5q-43 0 -73 -21.5t-30 -58.5q0 -43 35 -75t141 -93q121 -70 198.5 -125t137.5 -117t86.5 -128t26.5 -146q0 -77 -25.5 -143t-70.5 -113t-106 -80.5t-131.5 -50t-147.5 -16.5q-103 0 -190.5 29.5t-148 79.5t-102.5 115.5t-62 136.5t-20 144z M532 1659l152 348h348l-233 -348h-267z" />
<glyph unicode="&#x15b;" horiz-adv-x="1290" d="M184 348h348q0 -38 44.5 -60t117.5 -22q105 0 105 43q0 24 -31 36.5t-149 41.5q-15 4 -23.5 6t-23 6t-27.5 7q-330 85 -330 325q0 98 60.5 173.5t156.5 114t209 38.5q214 0 339.5 -102t125.5 -248h-348q0 24 -20.5 39.5t-42 19.5t-42.5 4q-36 0 -63 -9.5t-27 -29.5 q0 -15 21 -24.5t105 -34.5q83 -25 142 -43q316 -97 316 -328q0 -78 -37.5 -140.5t-102 -101t-146.5 -59t-175 -20.5q-231 0 -366.5 92t-135.5 276zM522 1241l152 348h348l-234 -348h-266z" />
<glyph unicode="&#x15e;" horiz-adv-x="1331" d="M184 485h348q0 -87 49 -132.5t126 -45.5q65 0 99 26.5t34 63.5q0 15 -4 27.5t-15.5 25.5t-22.5 23t-34.5 25t-41 25.5t-52.5 31t-60 35.5q-126 77 -205 140t-120.5 122.5t-55.5 111t-14 119.5q0 173 129 282.5t322 109.5q144 0 254.5 -67t168.5 -180.5t58 -254.5h-348 q0 87 -35.5 130.5t-97.5 43.5q-43 0 -73 -21.5t-30 -58.5q0 -43 35 -75t141 -93q121 -70 198.5 -125t137.5 -117t86.5 -128t26.5 -146q0 -87 -32 -159t-88.5 -121t-129.5 -79t-158 -40l-55 -86q236 0 236 -160q0 -38 -14 -69.5t-42 -53t-58.5 -37.5t-74.5 -25t-78.5 -15 t-81.5 -7.5t-73 -2t-64 0t-43 0.5l62 147h8q76 0 111.5 1t81 6t63.5 17t18 32q0 18 -9.5 28.5t-30 15.5t-38 6t-47.5 1l-192 -8l96 223q-178 45 -274.5 184.5t-96.5 302.5z" />
<glyph unicode="&#x15f;" horiz-adv-x="1290" d="M184 348h348q0 -38 44.5 -60t117.5 -22q105 0 105 43q0 24 -31 36.5t-149 41.5q-15 4 -23.5 6t-23 6t-27.5 7q-330 85 -330 325q0 98 60.5 173.5t156.5 114t209 38.5q214 0 339.5 -102t125.5 -248h-348q0 24 -20.5 39.5t-42 19.5t-42.5 4q-36 0 -63 -9.5t-27 -29.5 q0 -15 21 -24.5t105 -34.5q83 -25 142 -43q316 -97 316 -328q0 -133 -102.5 -214t-264.5 -101l-55 -88q236 0 236 -160q0 -38 -14 -69.5t-42 -53t-58.5 -37.5t-74.5 -25t-78.5 -15t-81.5 -7.5t-73 -2t-64 0t-43 0.5l62 147h8q76 0 111.5 1t81 6t63.5 17t18 32 q0 18 -9.5 28.5t-30 15.5t-38 6t-47.5 1l-192 -8l92 213q-172 26 -269.5 115.5t-97.5 244.5z" />
<glyph unicode="&#x160;" horiz-adv-x="1331" d="M184 485h348q0 -87 49 -132.5t126 -45.5q65 0 99 26.5t34 63.5q0 15 -4 27.5t-15.5 25.5t-22.5 23t-34.5 25t-41 25.5t-52.5 31t-60 35.5q-126 77 -205 140t-120.5 122.5t-55.5 111t-14 119.5q0 173 129 282.5t322 109.5q144 0 254.5 -67t168.5 -180.5t58 -254.5h-348 q0 87 -35.5 130.5t-97.5 43.5q-43 0 -73 -21.5t-30 -58.5q0 -43 35 -75t141 -93q121 -70 198.5 -125t137.5 -117t86.5 -128t26.5 -146q0 -77 -25.5 -143t-70.5 -113t-106 -80.5t-131.5 -50t-147.5 -16.5q-103 0 -190.5 29.5t-148 79.5t-102.5 115.5t-62 136.5t-20 144z M274 2007h304l88 -152l88 152h303l-264 -348h-254z" />
<glyph unicode="&#x161;" horiz-adv-x="1290" d="M184 348h348q0 -38 44.5 -60t117.5 -22q105 0 105 43q0 24 -31 36.5t-149 41.5q-15 4 -23.5 6t-23 6t-27.5 7q-330 85 -330 325q0 98 60.5 173.5t156.5 114t209 38.5q214 0 339.5 -102t125.5 -248h-348q0 24 -20.5 39.5t-42 19.5t-42.5 4q-36 0 -63 -9.5t-27 -29.5 q0 -15 21 -24.5t105 -34.5q83 -25 142 -43q316 -97 316 -328q0 -78 -37.5 -140.5t-102 -101t-146.5 -59t-175 -20.5q-231 0 -366.5 92t-135.5 276zM264 1589h303l88 -151l88 151h304l-265 -348h-254z" />
<glyph unicode="&#x162;" horiz-adv-x="1249" d="M143 1126v328h1004v-328h-328v-1126h-49l-65 -102q235 0 235 -160q0 -38 -14 -69.5t-42 -53t-58.5 -37.5t-74 -25t-78 -15t-82 -7.5t-73 -2t-63.5 0t-43 0.5l61 147h8q76 0 112 1t81.5 6t63.5 17t18 32q0 18 -9.5 28.5t-30 15.5t-38 6t-47.5 1l-193 -8l97 225h-64v1126 h-328z" />
<glyph unicode="&#x163;" horiz-adv-x="1003" d="M123 709v327h178v307h348v-307h252v-327h-252v-709h-53l-66 -102q236 0 236 -160q0 -38 -14 -69.5t-42 -53t-58.5 -37.5t-74 -25t-78 -15t-82 -7.5t-73 -2t-63.5 0t-43 0.5l61 147h8q76 0 112 1t81.5 6t63.5 17t18 32q0 18 -9.5 28.5t-30 15.5t-38 6t-47.5 1l-193 -8 l96 225h-59v709h-178z" />
<glyph unicode="&#x164;" horiz-adv-x="1249" d="M143 1126v328h1004v-328h-328v-1126h-348v1126h-328zM254 2007h303l88 -152l88 152h303l-264 -348h-254z" />
<glyph unicode="&#x165;" horiz-adv-x="1003" d="M123 709v327h178v307h348v-307h252v-327h-252v-709h-348v709h-178zM758 1118l133 500h348l-215 -500h-266z" />
<glyph unicode="&#x166;" horiz-adv-x="1249" d="M143 1126v328h1004v-328h-328v-235h287v-328h-287v-563h-348v563h-287v328h287v235h-328z" />
<glyph unicode="&#x167;" horiz-adv-x="1003" d="M123 709v327h178v307h348v-307h252v-327h-252v-101h217v-327h-217v-281h-348v281h-172v327h172v101h-178z" />
<glyph unicode="&#x168;" horiz-adv-x="1466" d="M143 655v799h349v-799q0 -194 61 -271t201 -77t201 77t61 271v799h348v-799q0 -675 -610 -675q-611 0 -611 675zM244 1708q37 320 301 320q52 0 101.5 -20t81 -43.5t73 -43.5t80.5 -20q46 0 71 23.5t25 82.5l287 -61q-37 -320 -301 -320q-52 0 -101.5 20t-81 43.5 t-73 43.5t-80.5 20q-43 0 -70 -27t-27 -79z" />
<glyph unicode="&#x169;" horiz-adv-x="1409" d="M184 418v618h348v-450q0 -158 40.5 -218.5t129.5 -60.5q40 0 75.5 12t68.5 39t52.5 80t19.5 127v471h348v-1036h-328l-20 125q-172 -145 -359 -145q-191 0 -283 113.5t-92 324.5zM225 1290q37 320 301 320q52 0 101.5 -20t81 -43.5t73 -43.5t80.5 -20q46 0 71 23.5 t25 82.5l287 -61q-37 -320 -301 -320q-52 0 -101.5 20t-81 43.5t-73 43.5t-80.5 20q-43 0 -69.5 -27t-26.5 -79z" />
<glyph unicode="&#x16a;" horiz-adv-x="1466" d="M143 655v799h349v-799q0 -194 61 -271t201 -77t201 77t61 271v799h348v-799q0 -675 -610 -675q-611 0 -611 675zM434 1679v328h645v-328h-645z" />
<glyph unicode="&#x16b;" horiz-adv-x="1409" d="M184 418v618h348v-450q0 -158 40.5 -218.5t129.5 -60.5q40 0 75.5 12t68.5 39t52.5 80t19.5 127v471h348v-1036h-328l-20 125q-172 -145 -359 -145q-191 0 -283 113.5t-92 324.5zM416 1262v327h645v-327h-645z" />
<glyph unicode="&#x16e;" horiz-adv-x="1466" d="M143 655v799h349v-799q0 -194 61 -271t201 -77t201 77t61 271v799h348v-799q0 -675 -610 -675q-611 0 -611 675zM569 1843q0 77 54.5 131t130.5 54t130 -54t54 -131t-54 -130.5t-130 -53.5q-77 0 -131 54t-54 130zM713 1843q0 -17 12 -29t29 -12t29 12t12 29t-12 29 t-29 12t-29 -12t-12 -29z" />
<glyph unicode="&#x16f;" horiz-adv-x="1409" d="M184 418v618h348v-450q0 -158 40.5 -218.5t129.5 -60.5q40 0 75.5 12t68.5 39t52.5 80t19.5 127v471h348v-1036h-328l-20 125q-172 -145 -359 -145q-191 0 -283 113.5t-92 324.5zM551 1425q0 77 54 131t130 54q77 0 131 -54t54 -131q0 -76 -54 -130t-131 -54t-130.5 53.5 t-53.5 130.5zM694 1425q0 -17 12 -29t29 -12t29 12t12 29t-12 29t-29 12t-29 -12t-12 -29z" />
<glyph unicode="&#x170;" horiz-adv-x="1466" d="M143 655v799h349v-799q0 -194 61 -271t201 -77t201 77t61 271v799h348v-799q0 -675 -610 -675q-611 0 -611 675zM393 1659l152 348h348l-234 -348h-266zM831 1659l152 348h348l-233 -348h-267z" />
<glyph unicode="&#x171;" horiz-adv-x="1409" d="M184 418v618h348v-450q0 -158 40.5 -218.5t129.5 -60.5q40 0 75.5 12t68.5 39t52.5 80t19.5 127v471h348v-1036h-328l-20 125q-172 -145 -359 -145q-191 0 -283 113.5t-92 324.5zM375 1241l151 348h348l-233 -348h-266zM813 1241l152 348h348l-234 -348h-266z" />
<glyph unicode="&#x172;" horiz-adv-x="1466" d="M143 655v799h349v-799q0 -194 61 -271t201 -77t201 77t61 271v799h348v-799q0 -614 -506 -669q-28 -40 -23.5 -74.5t52.5 -34.5q98 0 205 57v-266q-32 -32 -59.5 -53.5t-87.5 -43.5t-130 -22q-73 0 -135 39.5t-96.5 101t-32.5 143.5t49 159q-457 76 -457 663z" />
<glyph unicode="&#x173;" horiz-adv-x="1409" d="M184 418v618h348v-450q0 -158 40.5 -218.5t129.5 -60.5q40 0 75.5 12t68.5 39t52.5 80t19.5 127v471h348v-1036h-11q-21 -23 -35 -47.5t-17.5 -46t9.5 -35.5t43 -14q98 0 205 57v-266q-33 -33 -60 -54t-86.5 -43t-129.5 -22q-60 0 -114.5 27t-90.5 75t-52 106.5t-1 128.5 t63 134h-51l-20 125q-172 -145 -359 -145q-191 0 -283 113.5t-92 324.5z" />
<glyph unicode="&#x174;" horiz-adv-x="2498" d="M143 1454h357l297 -987l295 987h356l297 -987l295 987h356l-442 -1454h-420l-264 868l-264 -868h-420zM879 1659l264 348h254l264 -348h-303l-88 151l-88 -151h-303z" />
<glyph unicode="&#x175;" horiz-adv-x="2140" d="M164 1036h371l186 -590l184 590h371l186 -590l185 590h370l-375 -1036h-362l-188 524l-191 -524h-362zM709 1241l264 348h254l264 -348h-303l-88 152l-88 -152h-303z" />
<glyph unicode="&#x176;" horiz-adv-x="1691" d="M143 1454h394l329 -539l330 539h393l-549 -897v-557h-348v557zM477 1659l264 348h254l265 -348h-304l-88 151l-88 -151h-303z" />
<glyph unicode="&#x177;" horiz-adv-x="1517" d="M164 1036h373l241 -604l244 604h373l-635 -1507h-367l199 471zM403 1241l265 348h254l264 -348h-303l-88 152l-88 -152h-304z" />
<glyph unicode="&#x178;" horiz-adv-x="1691" d="M143 1454h394l329 -539l330 539h393l-549 -897v-557h-348v557zM489 1864q0 69 47.5 116.5t116.5 47.5t116.5 -47.5t47.5 -116.5t-47.5 -116.5t-116.5 -47.5t-116.5 47.5t-47.5 116.5zM920 1864q0 69 47 116.5t116 47.5t116.5 -47.5t47.5 -116.5t-47.5 -116.5 t-116.5 -47.5t-116 47.5t-47 116.5z" />
<glyph unicode="&#x179;" horiz-adv-x="1492" d="M184 0v328l729 798h-729v328h1186v-328l-729 -798h729v-328h-1186zM655 1659l152 348h348l-233 -348h-267z" />
<glyph unicode="&#x17a;" horiz-adv-x="1249" d="M184 0v328l471 381h-471v327h942v-327l-471 -381h471v-328h-942zM522 1241l152 348h348l-234 -348h-266z" />
<glyph unicode="&#x17b;" horiz-adv-x="1492" d="M184 0v328l729 798h-729v328h1186v-328l-729 -798h729v-328h-1186zM625 1864q0 69 47 116.5t116 47.5t116.5 -47.5t47.5 -116.5t-47.5 -116.5t-116.5 -47.5t-116 47.5t-47 116.5z" />
<glyph unicode="&#x17c;" horiz-adv-x="1249" d="M184 0v328l471 381h-471v327h942v-327l-471 -381h471v-328h-942zM492 1446q0 69 47 116.5t116 47.5t116.5 -47.5t47.5 -116.5t-47.5 -116.5t-116.5 -47.5t-116 47.5t-47 116.5z" />
<glyph unicode="&#x17d;" horiz-adv-x="1492" d="M184 0v328l729 798h-729v328h1186v-328l-729 -798h729v-328h-1186zM397 2007h303l88 -152l89 152h303l-265 -348h-253z" />
<glyph unicode="&#x17e;" horiz-adv-x="1249" d="M184 0v328l471 381h-471v327h942v-327l-471 -381h471v-328h-942zM264 1589h303l88 -151l88 151h304l-265 -348h-254z" />
<glyph unicode="&#x218;" horiz-adv-x="1331" d="M184 485h348q0 -87 49 -132.5t126 -45.5q65 0 99 26.5t34 63.5q0 15 -4 27.5t-15.5 25.5t-22.5 23t-34.5 25t-41 25.5t-52.5 31t-60 35.5q-126 77 -205 140t-120.5 122.5t-55.5 111t-14 119.5q0 173 129 282.5t322 109.5q144 0 254.5 -67t168.5 -180.5t58 -254.5h-348 q0 87 -35.5 130.5t-97.5 43.5q-43 0 -73 -21.5t-30 -58.5q0 -43 35 -75t141 -93q121 -70 198.5 -125t137.5 -117t86.5 -128t26.5 -146q0 -77 -25.5 -143t-70.5 -113t-106 -80.5t-131.5 -50t-147.5 -16.5q-103 0 -190.5 29.5t-148 79.5t-102.5 115.5t-62 136.5t-20 144z M369 -623l133 500h348l-215 -500h-266z" />
<glyph unicode="&#x219;" horiz-adv-x="1290" d="M184 348h348q0 -38 44.5 -60t117.5 -22q105 0 105 43q0 24 -31 36.5t-149 41.5q-15 4 -23.5 6t-23 6t-27.5 7q-330 85 -330 325q0 98 60.5 173.5t156.5 114t209 38.5q214 0 339.5 -102t125.5 -248h-348q0 24 -20.5 39.5t-42 19.5t-42.5 4q-36 0 -63 -9.5t-27 -29.5 q0 -15 21 -24.5t105 -34.5q83 -25 142 -43q316 -97 316 -328q0 -78 -37.5 -140.5t-102 -101t-146.5 -59t-175 -20.5q-231 0 -366.5 92t-135.5 276zM369 -623l133 500h348l-215 -500h-266z" />
<glyph unicode="&#x21a;" horiz-adv-x="1249" d="M143 1126v328h1004v-328h-328v-1126h-348v1126h-328zM348 -623l133 500h348l-215 -500h-266z" />
<glyph unicode="&#x21b;" horiz-adv-x="1003" d="M123 709v327h178v307h348v-307h252v-327h-252v-709h-348v709h-178zM174 -623l133 500h348l-215 -500h-266z" />
<glyph unicode="&#x2c6;" horiz-adv-x="1191" d="M205 1167l264 349h254l264 -349h-303l-88 152l-88 -152h-303z" />
<glyph unicode="&#x2c7;" horiz-adv-x="1191" d="M205 1516h303l88 -152l88 152h303l-264 -349h-254z" />
<glyph unicode="&#x2d8;" horiz-adv-x="1273" d="M205 1516h266q0 -48 39 -85.5t127 -37.5t127 37.5t39 85.5h266q0 -76 -27 -137.5t-70.5 -100t-101.5 -64.5t-115.5 -36.5t-117.5 -10.5t-117.5 10.5t-115.5 36.5t-101.5 64.5t-70.5 100t-27 137.5z" />
<glyph unicode="&#x2d9;" horiz-adv-x="737" d="M205 1372q0 69 47.5 116.5t116.5 47.5t116 -47.5t47 -116.5t-47 -116.5t-116 -47.5t-116.5 47.5t-47.5 116.5z" />
<glyph unicode="&#x2da;" horiz-adv-x="778" d="M205 1352q0 76 53.5 130t130.5 54t130.5 -54t53.5 -130q0 -77 -54 -131t-130 -54t-130 54t-54 131zM348 1352q0 -17 12 -29t29 -12t29 12t12 29t-12 29t-29 12t-29 -12t-12 -29z" />
<glyph unicode="&#x2db;" horiz-adv-x="952" d="M213 -134q15 70 63 134h267q-21 -23 -35 -47.5t-17.5 -46t9.5 -35.5t43 -14q98 0 205 57v-266q-32 -32 -59.5 -53.5t-87.5 -43.5t-130 -22q-60 0 -114.5 27t-90.5 75t-52 106.5t-1 128.5z" />
<glyph unicode="&#x2dc;" horiz-adv-x="1429" d="M205 1217q37 319 301 319q52 0 101.5 -20t81 -43.5t73 -43.5t80.5 -20q45 0 70.5 24t25.5 83l287 -62q-37 -319 -301 -319q-52 0 -101.5 20t-81 43.5t-73 43.5t-80.5 20q-43 0 -69.5 -27.5t-26.5 -79.5z" />
<glyph unicode="&#x2dd;" horiz-adv-x="1347" d="M205 1167l151 349h349l-234 -349h-266zM643 1167l152 349h348l-234 -349h-266z" />
<glyph unicode="&#x300;" horiz-adv-x="0" d="M-705 1516h349l151 -349h-266z" />
<glyph unicode="&#x301;" horiz-adv-x="0" d="M-705 1167l152 349h348l-233 -349h-267z" />
<glyph unicode="&#x302;" horiz-adv-x="0" d="M-993 1167l264 349h254l264 -349h-303l-88 152l-88 -152h-303z" />
<glyph unicode="&#x303;" horiz-adv-x="0" d="M-1225 1217q37 319 301 319q52 0 101.5 -20t81 -43.5t73 -43.5t80.5 -20q45 0 70.5 24t25.5 83l287 -62q-37 -319 -301 -319q-52 0 -101.5 20t-81 43.5t-73 43.5t-80.5 20q-43 0 -69.5 -27.5t-26.5 -79.5z" />
<glyph unicode="&#x304;" horiz-adv-x="0" d="M-850 1188v328h645v-328h-645z" />
<glyph unicode="&#x306;" horiz-adv-x="0" d="M-1069 1516h266q0 -48 39 -85.5t127 -37.5t127 37.5t39 85.5h266q0 -76 -27 -137.5t-70.5 -100t-101.5 -64.5t-115.5 -36.5t-117.5 -10.5t-117.5 10.5t-115.5 36.5t-101.5 64.5t-70.5 100t-27 137.5z" />
<glyph unicode="&#x307;" horiz-adv-x="0" d="M-532 1372q0 69 47 116.5t116 47.5t116.5 -47.5t47.5 -116.5t-47.5 -116.5t-116.5 -47.5t-116 47.5t-47 116.5z" />
<glyph unicode="&#x308;" horiz-adv-x="0" d="M-940 1372q0 69 47.5 116.5t116.5 47.5t116.5 -47.5t47.5 -116.5t-47.5 -116.5t-116.5 -47.5t-116.5 47.5t-47.5 116.5zM-510 1372q0 69 47.5 116.5t116.5 47.5t116.5 -47.5t47.5 -116.5t-47.5 -116.5t-116.5 -47.5t-116.5 47.5t-47.5 116.5z" />
<glyph unicode="&#x30a;" horiz-adv-x="0" d="M-573 1352q0 76 53.5 130t130.5 54t130.5 -54t53.5 -130q0 -77 -54 -131t-130 -54t-130 54t-54 131zM-430 1352q0 -17 12 -29t29 -12t29 12t12 29t-12 29t-29 12t-29 -12t-12 -29z" />
<glyph unicode="&#x30b;" horiz-adv-x="0" d="M-1102 1167l152 349h348l-234 -349h-266zM-664 1167l152 349h348l-233 -349h-267z" />
<glyph unicode="&#x30c;" horiz-adv-x="0" d="M-993 1516h303l88 -152l88 152h303l-264 -349h-254z" />
<glyph unicode="&#x312;" horiz-adv-x="0" d="M-686 1188l215 500h266l-133 -500h-348z" />
<glyph unicode="&#x326;" horiz-adv-x="0" d="M-686 -623l133 500h348l-215 -500h-266z" />
<glyph unicode="&#x327;" horiz-adv-x="0" d="M-565 -471l61 147h8q76 0 112 1t81.5 6t63.5 17t18 32q0 18 -9.5 28.5t-30 15.5t-38 6t-47.5 1l-193 -8l97 225h235l-65 -102q235 0 235 -160q0 -38 -14 -69.5t-42 -53t-58.5 -37.5t-74 -25t-78 -15t-82 -7.5t-73 -2t-63.5 0t-43 0.5z" />
<glyph unicode="&#x328;" horiz-adv-x="0" d="M-604 -134q15 70 63 134h267q-21 -23 -35 -47.5t-17.5 -46t9.5 -35.5t43 -14q97 0 204 57v-266q-33 -33 -60 -54t-86.5 -43t-129.5 -22q-60 0 -114.5 27t-90.5 75t-52 106.5t-1 128.5z" />
<glyph unicode="&#x335;" horiz-adv-x="0" d="M-1126 317v328h921v-328h-921z" />
<glyph unicode="&#x336;" horiz-adv-x="0" d="M-1825 297v328h1659v-328h-1659z" />
<glyph unicode="&#x337;" horiz-adv-x="0" d="M-846 188v103l641 483v-102z" />
<glyph unicode="&#x338;" horiz-adv-x="0" d="M-1534 -82l1227 1618h102l-1227 -1618h-102z" />
<glyph unicode="&#x1e80;" horiz-adv-x="2498" d="M143 1454h357l297 -987l295 987h356l297 -987l295 987h356l-442 -1454h-420l-264 868l-264 -868h-420zM907 2007h348l152 -348h-266z" />
<glyph unicode="&#x1e81;" horiz-adv-x="2140" d="M164 1036h371l186 -590l184 590h371l186 -590l185 590h370l-375 -1036h-362l-188 524l-191 -524h-362zM737 1589h348l152 -348h-266z" />
<glyph unicode="&#x1e82;" horiz-adv-x="2498" d="M143 1454h357l297 -987l295 987h356l297 -987l295 987h356l-442 -1454h-420l-264 868l-264 -868h-420zM1135 1659l151 348h348l-233 -348h-266z" />
<glyph unicode="&#x1e83;" horiz-adv-x="2140" d="M164 1036h371l186 -590l184 590h371l186 -590l185 590h370l-375 -1036h-362l-188 524l-191 -524h-362zM965 1241l151 348h348l-233 -348h-266z" />
<glyph unicode="&#x1e84;" horiz-adv-x="2498" d="M143 1454h357l297 -987l295 987h356l297 -987l295 987h356l-442 -1454h-420l-264 868l-264 -868h-420zM891 1864q0 69 47.5 116.5t116.5 47.5t116.5 -47.5t47.5 -116.5t-47.5 -116.5t-116.5 -47.5t-116.5 47.5t-47.5 116.5zM1321 1864q0 69 47.5 116.5t116.5 47.5 t116.5 -47.5t47.5 -116.5t-47.5 -116.5t-116.5 -47.5t-116.5 47.5t-47.5 116.5z" />
<glyph unicode="&#x1e85;" horiz-adv-x="2140" d="M164 1036h371l186 -590l184 590h371l186 -590l185 590h370l-375 -1036h-362l-188 524l-191 -524h-362zM721 1446q0 69 47.5 116.5t116.5 47.5t116.5 -47.5t47.5 -116.5t-47.5 -116.5t-116.5 -47.5t-116.5 47.5t-47.5 116.5zM1151 1446q0 69 47.5 116.5t116.5 47.5 t116.5 -47.5t47.5 -116.5t-47.5 -116.5t-116.5 -47.5t-116.5 47.5t-47.5 116.5z" />
<glyph unicode="&#x1ebc;" horiz-adv-x="1105" d="M70 1708q37 320 301 320q52 0 101.5 -20t81 -43.5t73 -43.5t80.5 -20q46 0 71 23.5t25 82.5l287 -61q-8 -69 -27.5 -124t-54.5 -100.5t-90.5 -70.5t-129.5 -25q-52 0 -101.5 20t-81 43.5t-72.5 43.5t-80 20q-43 0 -70 -27t-27 -79zM143 0v1454h861v-328h-512v-233h409 v-328h-409v-237h512v-328h-861z" />
<glyph unicode="&#x1ebd;" d="M184 524q0 143 63.5 264.5t182 195t266.5 73.5q222 0 353 -145.5t131 -407.5v-123h-629q22 -61 83.5 -88t180.5 -27q113 0 303 53v-237q-74 -51 -174 -76.5t-199 -25.5q-136 0 -245 44t-177 119.5t-103.5 172.5t-35.5 208zM186 1290q37 320 301 320q52 0 101.5 -20 t81 -43.5t73 -43.5t80.5 -20q46 0 71.5 23.5t25.5 82.5l286 -61q-37 -320 -301 -320q-52 0 -101.5 20t-81 43.5t-73 43.5t-80.5 20q-43 0 -69.5 -27t-26.5 -79zM547 627h295q-13 68 -46.5 95.5t-90.5 27.5q-123 0 -158 -123z" />
<glyph unicode="&#x1ef2;" horiz-adv-x="1691" d="M143 1454h394l329 -539l330 539h393l-549 -897v-557h-348v557zM506 2007h348l152 -348h-267z" />
<glyph unicode="&#x1ef3;" horiz-adv-x="1517" d="M164 1036h373l241 -604l244 604h373l-635 -1507h-367l199 471zM432 1589h348l152 -348h-266z" />
<glyph unicode="&#x1ef8;" horiz-adv-x="1691" d="M143 1454h394l329 -539l330 539h393l-549 -897v-557h-348v557zM356 1708q37 320 301 320q52 0 101.5 -20t81 -43.5t73 -43.5t80.5 -20q46 0 71.5 23.5t25.5 82.5l286 -61q-37 -320 -301 -320q-52 0 -101.5 20t-81 43.5t-73 43.5t-80.5 20q-43 0 -69.5 -27t-26.5 -79z" />
<glyph unicode="&#x1ef9;" horiz-adv-x="1517" d="M164 1036h373l241 -604l244 604h373l-635 -1507h-367l199 471zM283 1290q37 320 301 320q52 0 101.5 -20t81 -43.5t73 -43.5t80.5 -20q46 0 71 23.5t25 82.5l287 -61q-8 -69 -27.5 -124t-54.5 -100.5t-90.5 -70.5t-129.5 -25q-52 0 -101.5 20t-81 43.5t-72.5 43.5t-80 20 q-43 0 -70 -27t-27 -79z" />
<glyph unicode="&#x2000;" horiz-adv-x="1044" />
<glyph unicode="&#x2001;" horiz-adv-x="2089" />
<glyph unicode="&#x2002;" horiz-adv-x="1044" />
<glyph unicode="&#x2003;" horiz-adv-x="2089" />
<glyph unicode="&#x2004;" horiz-adv-x="696" />
<glyph unicode="&#x2005;" horiz-adv-x="522" />
<glyph unicode="&#x2006;" horiz-adv-x="348" />
<glyph unicode="&#x2007;" horiz-adv-x="348" />
<glyph unicode="&#x2008;" horiz-adv-x="261" />
<glyph unicode="&#x2009;" horiz-adv-x="417" />
<glyph unicode="&#x200a;" horiz-adv-x="116" />
<glyph unicode="&#x2010;" horiz-adv-x="1290" d="M205 379v328h921v-328h-921z" />
<glyph unicode="&#x2011;" horiz-adv-x="1290" d="M205 379v328h921v-328h-921z" />
<glyph unicode="&#x2012;" horiz-adv-x="1290" d="M205 379v328h921v-328h-921z" />
<glyph unicode="&#x2013;" horiz-adv-x="2177" d="M61 379v328h2075v-328h-2075z" />
<glyph unicode="&#x2014;" horiz-adv-x="2867" d="M61 379v328h2765v-328h-2765z" />
<glyph unicode="&#x2018;" horiz-adv-x="681" d="M98 1036l215 500h267l-134 -500h-348z" />
<glyph unicode="&#x2019;" horiz-adv-x="681" d="M94 1036l133 500h348l-215 -500h-266z" />
<glyph unicode="&#x201a;" horiz-adv-x="1228" d="M61 -348l134 500h348l-215 -500h-267z" />
<glyph unicode="&#x201c;" horiz-adv-x="1169" d="M123 1036l215 500h266l-133 -500h-348zM610 1036l215 500h267l-134 -500h-348z" />
<glyph unicode="&#x201d;" horiz-adv-x="1169" d="M86 1036l133 500h348l-215 -500h-266zM573 1036l134 500h348l-215 -500h-267z" />
<glyph unicode="&#x201e;" horiz-adv-x="1228" d="M61 -348l134 500h348l-215 -500h-267z" />
<glyph unicode="&#x2020;" horiz-adv-x="1331" d="M205 840v327h327v451h267v-451h327v-327h-327v-1004h-267v1004h-327z" />
<glyph unicode="&#x2021;" horiz-adv-x="1331" d="M205 266v328h327v246h-327v327h327v451h267v-451h327v-327h-327v-246h327v-328h-327v-430h-267v430h-327z" />
<glyph unicode="&#x2022;" horiz-adv-x="655" d="M61 604q0 104 71.5 175t174.5 71q104 0 175 -71t71 -175q0 -103 -71 -174.5t-175 -71.5q-103 0 -174.5 71.5t-71.5 174.5z" />
<glyph unicode="&#x2026;" horiz-adv-x="1351" d="M61 143q0 69 47.5 116.5t116.5 47.5t116.5 -47.5t47.5 -116.5t-47.5 -116t-116.5 -47t-116.5 47t-47.5 116zM492 143q0 69 47 116.5t116 47.5t116.5 -47.5t47.5 -116.5t-47.5 -116t-116.5 -47t-116 47t-47 116zM922 143q0 69 47 116.5t116 47.5t116.5 -47.5t47.5 -116.5 t-47.5 -116t-116.5 -47t-116 47t-47 116z" />
<glyph unicode="&#x202f;" horiz-adv-x="417" />
<glyph unicode="&#x2030;" horiz-adv-x="2834" d="M205 1137q0 141 98.5 239.5t239.5 98.5t239.5 -98.5t98.5 -239.5t-98.5 -239.5t-239.5 -98.5t-239.5 98.5t-98.5 239.5zM360 0l1098 1454h318l-1098 -1454h-318zM451 1137q0 -40 26 -66.5t66 -26.5t66 26.5t26 66.5t-26 66t-66 26t-66 -26t-26 -66zM1227 317 q0 141 98.5 239.5t239.5 98.5t239.5 -98.5t98.5 -239.5t-98.5 -239t-239.5 -98t-239.5 98t-98.5 239zM1473 317q0 -40 26 -66t66 -26t66 26t26 66t-26 66.5t-66 26.5t-66 -26.5t-26 -66.5zM1995 317q0 141 98.5 239.5t239.5 98.5t239.5 -98.5t98.5 -239.5t-98.5 -239 t-239.5 -98t-239.5 98t-98.5 239zM2241 317q0 -40 26 -66t66 -26t66 26t26 66t-26 66.5t-66 26.5t-66 -26.5t-26 -66.5z" />
<glyph unicode="&#x2039;" horiz-adv-x="999" d="M205 502l252 407h379l-252 -407l252 -408h-379z" />
<glyph unicode="&#x203a;" horiz-adv-x="897" d="M102 94l252 408l-252 407h379l252 -407l-252 -408h-379z" />
<glyph unicode="&#x2044;" horiz-adv-x="1579" d="M102 0l1098 1454h318l-1098 -1454h-318z" />
<glyph unicode="&#x205f;" horiz-adv-x="522" />
<glyph unicode="&#x20ac;" horiz-adv-x="1861" d="M205 522l14 82h252l-6 62h-211l14 82h195q4 154 63 289.5t156.5 231t230 151t279.5 55.5q250 0 424 -140v-348q-12 17 -40 40.5t-74.5 52t-117 48t-147.5 19.5q-112 0 -206.5 -47t-154.5 -139.5t-65 -212.5h410l-15 -82h-391q3 -33 12 -62h344l-14 -82h-297 q54 -102 154 -158.5t223 -56.5q77 0 147.5 19.5t117 48t74.5 52t40 40.5v-348q-173 -139 -424 -139q-252 0 -446 150t-257 392h-284z" />
<glyph unicode="&#x2122;" horiz-adv-x="1818" d="M164 1208v246h594v-246h-195v-368h-205v368h-194zM840 840v614h204l203 -297l203 297h205v-614h-205v282l-180 -282h-45l-181 282v-282h-204z" />
<glyph unicode="&#x2190;" horiz-adv-x="2152" d="M205 635v266l622 442v-311l-204 -131l1325 2v-266l-1327 -2l206 -131v-311z" />
<glyph unicode="&#x2191;" horiz-adv-x="1560" d="M205 913l442 623h266l443 -623h-312l-131 207l-2 -1120h-266l2 1118l-131 -205h-311z" />
<glyph unicode="&#x2192;" horiz-adv-x="2152" d="M205 637v266l1325 -2l-205 131v311l623 -442v-266l-623 -442v311l207 131z" />
<glyph unicode="&#x2193;" horiz-adv-x="1560" d="M205 623h311l131 -205l-2 1118h266l2 -1120l131 207h312l-443 -623h-266z" />
<glyph unicode="&#x2194;" horiz-adv-x="1945" d="M205 637v266l622 443v-312l-206 -131l702 -2l-205 131v311l623 -442v-266l-623 -442v311l207 131l-702 2l204 -131v-311z" />
<glyph unicode="&#x2195;" horiz-adv-x="1562" d="M205 623h311l131 -207l2 702l-131 -205h-311l442 623h266l443 -623h-311l-132 207l-2 -702l131 205h312l-443 -623h-266z" />
<glyph unicode="&#x2196;" horiz-adv-x="1685" d="M205 1049l188 188l754 -127l-219 -221l-238 53l791 -790l-189 -189l-792 791l53 -238l-219 -221z" />
<glyph unicode="&#x2197;" horiz-adv-x="1685" d="M205 152l790 790l-237 -53l-219 221l753 127l189 -188l-129 -754l-219 221l53 238l-793 -791z" />
<glyph unicode="&#x2198;" horiz-adv-x="1685" d="M205 1427l188 189l793 -791l-53 238l219 221l129 -754l-189 -188l-753 127l219 221l237 -53z" />
<glyph unicode="&#x2199;" horiz-adv-x="1683" d="M203 530l129 754l219 -221l-53 -238l792 791l189 -189l-791 -790l238 53l219 -221l-754 -127z" />
<glyph unicode="&#x2212;" horiz-adv-x="1310" d="M246 410v327h921v-327h-921z" />
<glyph unicode="&#x2248;" horiz-adv-x="1429" d="M205 295q37 319 301 319q52 0 101.5 -20t81 -43.5t73 -43.5t80.5 -20q45 0 70.5 24t25.5 83l287 -62q-37 -319 -301 -319q-52 0 -101.5 20t-81 43.5t-73 43.5t-80.5 20q-43 0 -69.5 -27.5t-26.5 -79.5zM205 807q37 319 301 319q52 0 101.5 -20t81 -43.5t73 -43.5 t80.5 -20q45 0 70.5 24t25.5 83l287 -62q-37 -319 -301 -319q-52 0 -101.5 20t-81 43.5t-73 43.5t-80.5 20q-43 0 -69.5 -27.5t-26.5 -79.5z" />
<glyph unicode="&#x2260;" horiz-adv-x="1310" d="M205 190v328h301l39 103h-340v327h463l55 150h272l-55 -150h186v-327h-309l-39 -103h348v-328h-469l-49 -129h-272l49 129h-180z" />
<glyph unicode="&#x2264;" horiz-adv-x="1310" d="M184 -92v328h922v-328h-922zM184 610v301l922 324v-295l-510 -178l510 -180v-295z" />
<glyph unicode="&#x2265;" horiz-adv-x="1331" d="M205 -92v328h921v-328h-921zM205 287v295l510 180l-510 178v295l921 -324v-301z" />
<glyph unicode="&#x25ca;" horiz-adv-x="1464" d="M205 635l377 819h301l377 -819l-377 -819h-301zM506 635l227 -492l225 492l-225 491z" />
<glyph unicode="&#x25fc;" horiz-adv-x="1034" d="M0 0v1034h1034v-1034h-1034z" />
<glyph horiz-adv-x="696" d="M123 729v307h450v-1036h-348v709zM213 1311q0 69 47.5 116.5t116.5 47.5t116.5 -47.5t47.5 -116.5t-47.5 -116.5t-116.5 -47.5t-116.5 47.5t-47.5 116.5z" />
<glyph horiz-adv-x="1368" d="M184 326q0 162 116.5 253t303.5 91q87 0 168 -29.5t105 -58.5q-15 188 -226 188q-101 0 -189.5 -27t-191.5 -75v266q217 123 455 123q500 0 500 -504v-553h-328l-20 63q-22 -24 -104.5 -53.5t-168.5 -29.5q-187 0 -303.5 91.5t-116.5 254.5zM532 326q0 -54 45.5 -87.5 t120.5 -33.5q73 0 126 35.5t53 85.5t-53 85t-126 35t-119.5 -33.5t-46.5 -86.5z" />
<glyph horiz-adv-x="1368" d="M184 326q0 162 116.5 253t303.5 91q87 0 168 -29.5t105 -58.5q-15 188 -226 188q-101 0 -189.5 -27t-191.5 -75v266q217 123 455 123q500 0 500 -504v-553h-328l-20 63q-22 -24 -104.5 -53.5t-168.5 -29.5q-187 0 -303.5 91.5t-116.5 254.5zM532 326q0 -54 45.5 -87.5 t120.5 -33.5q73 0 126 35.5t53 85.5t-53 85t-126 35t-119.5 -33.5t-46.5 -86.5zM592 1241l151 348h349l-234 -348h-266z" />
<glyph horiz-adv-x="1368" d="M184 326q0 162 116.5 253t303.5 91q87 0 168 -29.5t105 -58.5q-15 188 -226 188q-101 0 -189.5 -27t-191.5 -75v266q217 123 455 123q500 0 500 -504v-553h-328l-20 63q-22 -24 -104.5 -53.5t-168.5 -29.5q-187 0 -303.5 91.5t-116.5 254.5zM293 1589h266q0 -48 39 -85.5 t127 -37.5t127 37.5t39 85.5h266q0 -76 -27 -137t-70.5 -99.5t-101.5 -64.5t-115.5 -36.5t-117.5 -10.5t-117.5 10.5t-115.5 36.5t-101.5 64.5t-70.5 99.5t-27 137zM532 326q0 -54 45.5 -87.5t120.5 -33.5q73 0 126 35.5t53 85.5t-53 85t-126 35t-119.5 -33.5t-46.5 -86.5z " />
<glyph horiz-adv-x="1368" d="M184 326q0 162 116.5 253t303.5 91q87 0 168 -29.5t105 -58.5q-15 188 -226 188q-101 0 -189.5 -27t-191.5 -75v266q217 123 455 123q500 0 500 -504v-553h-328l-20 63q-22 -24 -104.5 -53.5t-168.5 -29.5q-187 0 -303.5 91.5t-116.5 254.5zM336 1241l264 348h254 l264 -348h-303l-88 152l-88 -152h-303zM532 326q0 -54 45.5 -87.5t120.5 -33.5q73 0 126 35.5t53 85.5t-53 85t-126 35t-119.5 -33.5t-46.5 -86.5z" />
<glyph horiz-adv-x="1368" d="M184 326q0 162 116.5 253t303.5 91q87 0 168 -29.5t105 -58.5q-15 188 -226 188q-101 0 -189.5 -27t-191.5 -75v266q217 123 455 123q500 0 500 -504v-553h-328l-20 63q-22 -24 -104.5 -53.5t-168.5 -29.5q-187 0 -303.5 91.5t-116.5 254.5zM348 1446q0 69 47.5 116.5 t116.5 47.5t116.5 -47.5t47.5 -116.5t-47.5 -116.5t-116.5 -47.5t-116.5 47.5t-47.5 116.5zM532 326q0 -54 45.5 -87.5t120.5 -33.5q73 0 126 35.5t53 85.5t-53 85t-126 35t-119.5 -33.5t-46.5 -86.5zM778 1446q0 69 47.5 116.5t116.5 47.5t116.5 -47.5t47.5 -116.5 t-47.5 -116.5t-116.5 -47.5t-116.5 47.5t-47.5 116.5z" />
<glyph horiz-adv-x="1368" d="M184 326q0 162 116.5 253t303.5 91q87 0 168 -29.5t105 -58.5q-15 188 -226 188q-101 0 -189.5 -27t-191.5 -75v266q217 123 455 123q500 0 500 -504v-553h-328l-20 63q-22 -24 -104.5 -53.5t-168.5 -29.5q-187 0 -303.5 91.5t-116.5 254.5zM365 1589h348l151 -348h-266z M532 326q0 -54 45.5 -87.5t120.5 -33.5q73 0 126 35.5t53 85.5t-53 85t-126 35t-119.5 -33.5t-46.5 -86.5z" />
<glyph horiz-adv-x="1368" d="M184 326q0 162 116.5 253t303.5 91q87 0 168 -29.5t105 -58.5q-15 188 -226 188q-101 0 -189.5 -27t-191.5 -75v266q217 123 455 123q500 0 500 -504v-553h-328l-20 63q-22 -24 -104.5 -53.5t-168.5 -29.5q-187 0 -303.5 91.5t-116.5 254.5zM406 1262v327h645v-327h-645z M532 326q0 -54 45.5 -87.5t120.5 -33.5q73 0 126 35.5t53 85.5t-53 85t-126 35t-119.5 -33.5t-46.5 -86.5z" />
<glyph horiz-adv-x="1368" d="M184 326q0 162 116.5 253t303.5 91q87 0 168 -29.5t105 -58.5q-15 188 -226 188q-101 0 -189.5 -27t-191.5 -75v266q217 123 455 123q500 0 500 -504v-553h-29q-21 -23 -35 -47.5t-17.5 -46t9.5 -35.5t43 -14q98 0 205 57v-266q-32 -32 -59.5 -53.5t-87.5 -43.5t-130 -22 q-60 0 -114.5 27t-90 75t-52 106.5t-1 128.5t63.5 134h-33l-20 63q-22 -24 -104.5 -53.5t-168.5 -29.5q-187 0 -303.5 91.5t-116.5 254.5zM532 326q0 -54 45.5 -87.5t120.5 -33.5q73 0 126 35.5t53 85.5t-53 85t-126 35t-119.5 -33.5t-46.5 -86.5z" />
<glyph horiz-adv-x="1368" d="M184 326q0 162 116.5 253t303.5 91q87 0 168 -29.5t105 -58.5q-15 188 -226 188q-101 0 -189.5 -27t-191.5 -75v266q217 123 455 123q500 0 500 -504v-553h-328l-20 63q-22 -24 -104.5 -53.5t-168.5 -29.5q-187 0 -303.5 91.5t-116.5 254.5zM532 326q0 -54 45.5 -87.5 t120.5 -33.5q73 0 126 35.5t53 85.5t-53 85t-126 35t-119.5 -33.5t-46.5 -86.5zM541 1425q0 77 54 131t130 54t130 -54t54 -131t-53.5 -130.5t-130.5 -53.5t-130.5 53.5t-53.5 130.5zM684 1425q0 -17 12 -29t29 -12t29 12t12 29t-12 29t-29 12t-29 -12t-12 -29z" />
<glyph horiz-adv-x="1368" d="M184 326q0 162 116.5 253t303.5 91q87 0 168 -29.5t105 -58.5q-15 188 -226 188q-101 0 -189.5 -27t-191.5 -75v266q217 123 455 123q500 0 500 -504v-553h-328l-20 63q-22 -24 -104.5 -53.5t-168.5 -29.5q-187 0 -303.5 91.5t-116.5 254.5zM215 1290q37 320 301 320 q52 0 101.5 -20t81 -43.5t73 -43.5t80.5 -20q46 0 71 23.5t25 82.5l287 -61q-37 -320 -301 -320q-52 0 -101.5 20t-81 43.5t-73 43.5t-80.5 20q-43 0 -69.5 -27t-26.5 -79zM532 326q0 -54 45.5 -87.5t120.5 -33.5q73 0 126 35.5t53 85.5t-53 85t-126 35t-119.5 -33.5 t-46.5 -86.5z" />
<glyph horiz-adv-x="2078" d="M184 326q0 162 116.5 253t303.5 91q87 0 168 -29.5t105 -58.5q-15 188 -226 188q-101 0 -189.5 -27t-191.5 -75v266q217 123 455 123q258 0 381 -133q143 133 346 133q222 0 352.5 -145.5t130.5 -407.5v-123h-628q22 -61 83.5 -88t180.5 -27q113 0 303 53v-237 q-74 -51 -174 -76.5t-199 -25.5q-159 0 -276 57v-37h-328l-20 63q-22 -24 -104.5 -53.5t-168.5 -29.5q-187 0 -303.5 91.5t-116.5 254.5zM532 326q0 -54 45.5 -87.5t120.5 -33.5q73 0 126 35.5t53 85.5t-53 85t-126 35t-119.5 -33.5t-46.5 -86.5zM1303 627h294 q-13 68 -46.5 95.5t-90.5 27.5q-122 0 -157 -123z" />
<glyph d="M184 524q0 143 63.5 264.5t182 195t266.5 73.5q222 0 353 -145.5t131 -407.5v-123h-629q22 -61 83.5 -88t180.5 -27q113 0 303 53v-237q-74 -51 -174 -76.5t-199 -25.5q-136 0 -245 44t-177 119.5t-103.5 172.5t-35.5 208zM547 627h295q-13 68 -46.5 95.5t-90.5 27.5 q-123 0 -158 -123z" />
<glyph d="M184 524q0 143 63.5 264.5t182 195t266.5 73.5q222 0 353 -145.5t131 -407.5v-123h-629q22 -61 83.5 -88t180.5 -27q113 0 303 53v-237q-74 -51 -174 -76.5t-199 -25.5q-136 0 -245 44t-177 119.5t-103.5 172.5t-35.5 208zM547 627h295q-13 68 -46.5 95.5t-90.5 27.5 q-123 0 -158 -123zM563 1241l152 348h348l-234 -348h-266z" />
<glyph d="M184 524q0 143 63.5 264.5t182 195t266.5 73.5q222 0 353 -145.5t131 -407.5v-123h-629q22 -61 83.5 -88t180.5 -27q113 0 303 53v-237q-74 -51 -174 -76.5t-199 -25.5q-136 0 -245 44t-177 119.5t-103.5 172.5t-35.5 208zM305 1589h303l88 -151l88 151h303l-264 -348 h-254zM547 627h295q-13 68 -46.5 95.5t-90.5 27.5q-123 0 -158 -123z" />
<glyph d="M184 524q0 143 63.5 264.5t182 195t266.5 73.5q222 0 353 -145.5t131 -407.5v-123h-629q22 -61 83.5 -88t180.5 -27q113 0 303 53v-237q-74 -51 -174 -76.5t-199 -25.5q-136 0 -245 44t-177 119.5t-103.5 172.5t-35.5 208zM307 1241l264 348h254l265 -348h-304l-88 152 l-88 -152h-303zM547 627h295q-13 68 -46.5 95.5t-90.5 27.5q-123 0 -158 -123z" />
<glyph d="M184 524q0 143 63.5 264.5t182 195t266.5 73.5q222 0 353 -145.5t131 -407.5v-123h-629q22 -61 83.5 -88t180.5 -27q113 0 303 53v-237q-74 -51 -174 -76.5t-199 -25.5q-136 0 -245 44t-177 119.5t-103.5 172.5t-35.5 208zM319 1446q0 69 47.5 116.5t116.5 47.5 t116.5 -47.5t47.5 -116.5t-47.5 -116.5t-116.5 -47.5t-116.5 47.5t-47.5 116.5zM547 627h295q-13 68 -46.5 95.5t-90.5 27.5q-123 0 -158 -123zM750 1446q0 69 47 116.5t116 47.5t116.5 -47.5t47.5 -116.5t-47.5 -116.5t-116.5 -47.5t-116 47.5t-47 116.5z" />
<glyph d="M184 524q0 143 63.5 264.5t182 195t266.5 73.5q222 0 353 -145.5t131 -407.5v-123h-629q22 -61 83.5 -88t180.5 -27q113 0 303 53v-237q-74 -51 -174 -76.5t-199 -25.5q-136 0 -245 44t-177 119.5t-103.5 172.5t-35.5 208zM532 1446q0 69 47.5 116.5t116.5 47.5 t116.5 -47.5t47.5 -116.5t-47.5 -116.5t-116.5 -47.5t-116.5 47.5t-47.5 116.5zM547 627h295q-13 68 -46.5 95.5t-90.5 27.5q-123 0 -158 -123z" />
<glyph d="M184 524q0 143 63.5 264.5t182 195t266.5 73.5q222 0 353 -145.5t131 -407.5v-123h-629q22 -61 83.5 -88t180.5 -27q113 0 303 53v-237q-74 -51 -174 -76.5t-199 -25.5q-136 0 -245 44t-177 119.5t-103.5 172.5t-35.5 208zM336 1589h348l152 -348h-267zM547 627h295 q-13 68 -46.5 95.5t-90.5 27.5q-123 0 -158 -123z" />
<glyph d="M184 524q0 143 63.5 264.5t182 195t266.5 73.5q222 0 353 -145.5t131 -407.5v-123h-629q22 -61 83.5 -88t180.5 -27q113 0 303 53v-237q-74 -51 -174 -76.5t-199 -25.5q-136 0 -245 44t-177 119.5t-103.5 172.5t-35.5 208zM377 1262v327h645v-327h-645zM547 627h295 q-13 68 -46.5 95.5t-90.5 27.5q-123 0 -158 -123z" />
<glyph d="M184 524q0 143 63.5 264.5t182 195t266.5 73.5q222 0 353 -145.5t131 -407.5v-123h-629q22 -61 83.5 -88t180.5 -27q113 0 303 53v-237q-111 -74 -268 -94q-25 -31 -36 -60t0 -50t48 -21q98 0 205 57v-266q-33 -33 -60 -54t-86.5 -43t-129.5 -22q-75 0 -138.5 42 t-97.5 107t-27 151.5t64 166.5q-197 43 -302.5 188.5t-105.5 339.5zM547 627h295q-13 68 -46.5 95.5t-90.5 27.5q-123 0 -158 -123z" />
<glyph d="M184 524q0 143 63.5 264.5t182 195t266.5 73.5q222 0 353 -145.5t131 -407.5v-123h-629q22 -61 83.5 -88t180.5 -27q113 0 303 53v-237q-74 -51 -174 -76.5t-199 -25.5q-136 0 -245 44t-177 119.5t-103.5 172.5t-35.5 208zM186 1290q37 320 301 320q52 0 101.5 -20 t81 -43.5t73 -43.5t80.5 -20q46 0 71.5 23.5t25.5 82.5l286 -61q-37 -320 -301 -320q-52 0 -101.5 20t-81 43.5t-73 43.5t-80.5 20q-43 0 -69.5 -27t-26.5 -79zM547 627h295q-13 68 -46.5 95.5t-90.5 27.5q-123 0 -158 -123z" />
<glyph horiz-adv-x="1490" d="M184 518q0 148 63 271t178.5 195.5t260.5 72.5q113 0 195.5 -45.5t117.5 -112.5l21 137h328v-962q0 -118 -35.5 -220t-104 -179.5t-177 -122t-245.5 -44.5q-134 0 -283 37.5t-233 85.5v267q86 -32 129.5 -47.5t137.5 -35.5t176 -20q286 0 286 279v63q-34 -67 -117 -112 t-196 -45q-145 0 -260.5 72.5t-178.5 195t-63 270.5zM532 518q0 -88 59.5 -149.5t156.5 -61.5q96 0 153 61t57 150t-57 150t-153 61q-97 0 -156.5 -61.5t-59.5 -149.5z" />
<glyph horiz-adv-x="1490" d="M184 518q0 148 63 271t178.5 195.5t260.5 72.5q113 0 195.5 -45.5t117.5 -112.5l21 137h328v-962q0 -118 -35.5 -220t-104 -179.5t-177 -122t-245.5 -44.5q-134 0 -283 37.5t-233 85.5v267q86 -32 129.5 -47.5t137.5 -35.5t176 -20q286 0 286 279v63q-34 -67 -117 -112 t-196 -45q-145 0 -260.5 72.5t-178.5 195t-63 270.5zM346 1589h266q0 -48 39 -85.5t127 -37.5t127 37.5t39 85.5h266q0 -76 -27 -137t-70.5 -99.5t-101.5 -64.5t-115.5 -36.5t-117.5 -10.5t-117.5 10.5t-115.5 36.5t-101.5 64.5t-70.5 99.5t-27 137zM532 518 q0 -88 59.5 -149.5t156.5 -61.5q96 0 153 61t57 150t-57 150t-153 61q-97 0 -156.5 -61.5t-59.5 -149.5z" />
<glyph horiz-adv-x="1490" d="M184 518q0 148 63 271t178.5 195.5t260.5 72.5q113 0 195.5 -45.5t117.5 -112.5l21 137h328v-962q0 -118 -35.5 -220t-104 -179.5t-177 -122t-245.5 -44.5q-134 0 -283 37.5t-233 85.5v267q86 -32 129.5 -47.5t137.5 -35.5t176 -20q286 0 286 279v63q-34 -67 -117 -112 t-196 -45q-145 0 -260.5 72.5t-178.5 195t-63 270.5zM532 518q0 -88 59.5 -149.5t156.5 -61.5q96 0 153 61t57 150t-57 150t-153 61q-97 0 -156.5 -61.5t-59.5 -149.5zM604 1262l215 499h266l-133 -499h-348z" />
<glyph horiz-adv-x="1490" d="M184 518q0 148 63 271t178.5 195.5t260.5 72.5q113 0 195.5 -45.5t117.5 -112.5l21 137h328v-962q0 -118 -35.5 -220t-104 -179.5t-177 -122t-245.5 -44.5q-134 0 -283 37.5t-233 85.5v267q86 -32 129.5 -47.5t137.5 -35.5t176 -20q286 0 286 279v63q-34 -67 -117 -112 t-196 -45q-145 0 -260.5 72.5t-178.5 195t-63 270.5zM532 518q0 -88 59.5 -149.5t156.5 -61.5q96 0 153 61t57 150t-57 150t-153 61q-97 0 -156.5 -61.5t-59.5 -149.5zM614 1446q0 69 47.5 116.5t116.5 47.5t116.5 -47.5t47.5 -116.5t-47.5 -116.5t-116.5 -47.5t-116.5 47.5 t-47.5 116.5z" />
<glyph horiz-adv-x="696" d="M123 729v307h450v-1036h-348v709zM213 1311q0 69 47.5 116.5t116.5 47.5t116.5 -47.5t47.5 -116.5t-47.5 -116.5t-116.5 -47.5t-116.5 47.5t-47.5 116.5z" />
<glyph horiz-adv-x="696" d="M123 729v307h450v-1036h-348v709z" />
<glyph horiz-adv-x="696" d="M123 729v307h450v-1036h-348v709zM244 1241l151 348h348l-233 -348h-266z" />
<glyph horiz-adv-x="696" d="M-12 1241l264 348h254l264 -348h-303l-88 152l-88 -152h-303zM123 729v307h450v-1036h-348v709z" />
<glyph horiz-adv-x="696" d="M0 1311q0 69 47.5 116.5t116.5 47.5t116.5 -47.5t47.5 -116.5t-47.5 -116.5t-116.5 -47.5t-116.5 47.5t-47.5 116.5zM123 729v307h450v-1036h-348v709zM430 1311q0 69 47.5 116.5t116.5 47.5t116.5 -47.5t47.5 -116.5t-47.5 -116.5t-116.5 -47.5t-116.5 47.5t-47.5 116.5 z" />
<glyph horiz-adv-x="696" d="M123 729v307h450v-1036h-348v709zM213 1311q0 69 47.5 116.5t116.5 47.5t116.5 -47.5t47.5 -116.5t-47.5 -116.5t-116.5 -47.5t-116.5 47.5t-47.5 116.5z" />
<glyph horiz-adv-x="696" d="M16 1589h349l151 -348h-266zM123 729v307h450v-1036h-348v709z" />
<glyph horiz-adv-x="696" d="M57 1262v327h645v-327h-645zM123 729v307h450v-1036h-348v709z" />
<glyph horiz-adv-x="696" d="M123 729v307h450v-1036h-43q-21 -23 -35 -47.5t-17.5 -46t9.5 -35.5t43 -14q98 0 205 57v-266q-33 -33 -60 -54t-86.5 -43t-129.5 -22q-60 0 -114.5 27t-90.5 75t-52 106.5t-1 128.5t63 134h-39v709zM213 1311q0 69 47.5 116.5t116.5 47.5t116.5 -47.5t47.5 -116.5 t-47.5 -116.5t-116.5 -47.5t-116.5 47.5t-47.5 116.5z" />
<glyph horiz-adv-x="686" d="M61 -471l195 491v689l-102 20v307h450v-1036l-180 -471h-363zM256 1311q0 69 47.5 116.5t116.5 47.5t116.5 -47.5t47.5 -116.5t-47.5 -116.5t-116.5 -47.5t-116.5 47.5t-47.5 116.5z" />
<glyph horiz-adv-x="716" d="M143 1229v307h451v-1536h-348v1208z" />
<glyph horiz-adv-x="716" d="M143 1229v307h451v-1536h-348v1208zM276 1741l152 348h348l-233 -348h-267z" />
<glyph horiz-adv-x="1071" d="M143 1229v307h451v-1536h-348v1208zM672 1036l133 500h348l-215 -500h-266z" />
<glyph horiz-adv-x="716" d="M113 -623l133 500h348l-215 -500h-266zM143 1229v307h451v-1536h-348v1208z" />
<glyph horiz-adv-x="716" d="M90 352v103l156 116v637l-103 21v307h451v-702l137 104v-102l-137 -105v-731h-348v469z" />
</font>
</defs>
</svg>
